<?xml version="1.0" standalone="no"?>
<!DOCTYPE svg PUBLIC "-//W3C//DTD SVG 20010904//EN"
 "http://www.w3.org/TR/2001/REC-SVG-20010904/DTD/svg10.dtd">
<svg version="1.0" xmlns="http://www.w3.org/2000/svg"
 width="1392.000000pt" height="1392.000000pt" viewBox="0 0 1392.000000 1392.000000"
 preserveAspectRatio="xMidYMid meet">

<g transform="translate(0.000000,1392.000000) scale(0.100000,-0.100000)"
fill="#000000" stroke="none">
<path d="M6500 13899 c-3208 -214 -5861 -2608 -6394 -5769 -68 -404 -96 -741
-96 -1170 0 -314 9 -489 41 -775 254 -2331 1694 -4392 3804 -5447 829 -415
1725 -656 2670 -718 83 -5 278 -10 435 -10 428 0 773 28 1170 96 2904 492
5195 2783 5684 5684 68 404 96 741 96 1170 0 314 -9 489 -41 775 -254 2331
-1694 4392 -3804 5447 -829 415 -1725 656 -2670 718 -176 11 -715 11 -895 -1z
m906 -20 c2032 -134 3881 -1135 5100 -2759 813 -1083 1284 -2355 1373 -3714
14 -205 14 -687 0 -892 -89 -1359 -560 -2631 -1373 -3714 -1219 -1624 -3068
-2625 -5100 -2759 -205 -14 -687 -14 -892 0 -1711 113 -3301 840 -4495 2056
-1176 1197 -1868 2742 -1978 4417 -14 205 -14 687 0 892 89 1359 560 2632
1373 3714 1214 1617 3064 2622 5076 2759 184 12 733 13 916 0z"/>
<path d="M6540 13609 c-1838 -120 -3522 -975 -4701 -2389 -1150 -1378 -1692
-3166 -1503 -4960 181 -1726 1024 -3304 2364 -4421 1378 -1150 3166 -1692
4960 -1503 1726 181 3304 1025 4421 2364 1214 1455 1743 3346 1468 5245 -108
743 -367 1520 -728 2183 -1055 1939 -2978 3227 -5161 3456 -334 35 -802 46
-1120 25z m1040 -213 c998 -104 1873 -394 2715 -899 1667 -999 2811 -2736
3069 -4657 45 -333 51 -444 51 -880 0 -436 -6 -547 -51 -880 -306 -2282 -1841
-4251 -3989 -5118 -585 -236 -1196 -382 -1860 -444 -189 -18 -921 -18 -1110 0
-1019 96 -1920 389 -2780 905 -1667 999 -2811 2736 -3069 4657 -45 333 -51
444 -51 880 0 436 6 547 51 880 242 1805 1254 3433 2779 4472 904 616 2005
1006 3070 1088 77 5 156 12 175 14 98 11 855 -3 1000 -18z"/>
<path d="M11766 9973 c3 -71 7 -143 10 -160 l5 -33 94 0 95 0 0 160 0 160
-105 0 -105 0 6 -127z"/>
<path d="M1940 8950 l0 -730 4935 0 4935 0 0 730 0 730 -4935 0 -4935 0 0
-730z m2795 215 c36 -15 70 -50 84 -88 21 -54 17 -57 -64 -57 -70 0 -78 2 -99
27 -18 21 -28 25 -50 19 -22 -5 -27 -11 -24 -34 2 -22 13 -32 53 -50 169 -78
205 -109 205 -178 0 -142 -173 -222 -320 -146 -62 31 -88 62 -97 115 l-6 37
81 0 c76 0 80 -1 86 -24 11 -46 96 -48 96 -2 0 32 -25 51 -98 75 -87 28 -132
58 -148 97 -27 65 -10 151 35 184 66 46 188 58 266 25z m1182 -7 c49 -23 116
-94 132 -138 l10 -30 -83 0 c-64 0 -87 4 -97 16 -23 28 -70 46 -104 40 -80
-15 -120 -128 -76 -214 36 -71 112 -83 168 -27 34 34 37 35 114 35 43 0 79 -3
79 -6 0 -21 -69 -130 -94 -149 -44 -33 -115 -48 -200 -43 -122 8 -182 57 -227
184 -24 68 -21 125 12 201 60 141 222 199 366 131z m646 8 c45 -22 76 -63 84
-111 l6 -35 -80 0 c-75 0 -80 1 -91 25 -14 31 -67 36 -77 6 -9 -30 4 -47 48
-66 189 -80 211 -100 204 -191 -7 -101 -81 -158 -202 -157 -102 1 -180 43
-205 108 -23 60 -17 65 68 65 71 0 78 -2 87 -22 7 -16 20 -24 44 -26 41 -4 56
9 47 42 -5 19 -19 29 -64 46 -146 53 -181 81 -189 153 -10 84 27 144 104 173
51 19 167 14 216 -10z m1052 7 c68 -23 137 -93 160 -162 22 -68 17 -169 -13
-226 -84 -164 -316 -201 -447 -70 -103 104 -107 275 -8 385 74 83 196 112 308
73z m1870 0 c68 -23 137 -93 160 -162 22 -68 17 -169 -13 -226 -84 -164 -316
-201 -447 -70 -103 104 -107 275 -8 385 74 83 196 112 308 73z m590 0 c68 -23
137 -93 160 -162 22 -68 17 -169 -13 -226 -84 -164 -316 -201 -447 -70 -103
104 -107 275 -8 385 74 83 196 112 308 73z m1218 -7 c45 -22 76 -63 84 -111
l6 -35 -80 0 c-75 0 -80 1 -91 25 -14 31 -67 36 -77 6 -9 -30 4 -47 48 -66
189 -80 211 -100 204 -191 -7 -101 -81 -158 -202 -157 -102 1 -180 43 -205
108 -23 60 -17 65 68 65 71 0 78 -2 87 -22 7 -16 20 -24 44 -26 41 -4 56 9 47
42 -5 19 -19 29 -64 46 -146 53 -181 81 -189 153 -10 84 27 144 104 173 51 19
167 14 216 -10z m-8303 -256 l0 -270 -75 0 -75 0 0 148 -1 147 -39 -105 c-22
-58 -47 -124 -56 -147 l-16 -43 -58 0 -58 0 -54 146 -53 145 -3 -145 -3 -146
-74 0 -75 0 0 265 0 266 96 -3 97 -3 61 -167 c33 -93 63 -168 66 -168 3 0 35
76 71 168 75 189 64 178 192 181 l57 1 0 -270z m492 5 c53 -143 97 -263 98
-267 0 -5 -35 -8 -79 -8 l-78 0 -13 45 -13 45 -102 0 -102 0 -13 -45 -13 -45
-74 0 c-67 0 -74 2 -68 17 3 10 43 121 87 248 44 126 85 240 89 253 8 22 13
23 96 20 l88 -3 97 -260z m476 41 c-3 -208 -5 -227 -24 -253 -57 -78 -196 -97
-271 -37 -52 42 -83 91 -83 130 l0 34 69 0 c68 0 69 -1 80 -30 8 -25 16 -30
41 -30 45 0 50 25 50 231 l0 179 71 0 70 0 -3 -224z m422 164 l0 -60 -100 0
-100 0 0 -45 0 -45 90 0 90 0 0 -55 0 -55 -90 0 -90 0 0 -50 0 -50 100 0 100
0 0 -60 0 -60 -175 0 -175 0 0 270 0 270 175 0 175 0 0 -60z m910 0 l0 -59
-67 -3 -68 -3 -3 -207 -2 -208 -70 0 -70 0 -2 208 -3 207 -72 3 -73 3 0 59 0
60 215 0 215 0 0 -60z m188 -212 l2 -268 -75 0 -75 0 0 270 0 271 73 -3 72 -3
3 -267z m1382 172 l0 -100 90 0 90 0 0 100 0 100 75 0 75 0 0 -270 0 -270 -75
0 -75 0 0 110 0 110 -90 0 -90 0 0 -110 0 -110 -80 0 -80 0 0 270 0 270 80 0
80 0 0 -100z m1145 -75 c16 -96 32 -169 36 -163 4 7 21 76 38 153 18 77 35
150 38 163 5 21 10 22 88 22 l83 0 25 -107 c14 -60 31 -136 38 -170 7 -35 16
-63 19 -63 3 0 19 77 34 170 l29 170 82 0 82 0 -66 -270 -65 -270 -93 0 -92 0
-9 33 c-5 18 -22 91 -38 162 l-28 130 -12 -45 c-7 -25 -25 -98 -39 -162 l-27
-118 -93 0 -93 0 -62 258 c-35 141 -65 263 -67 270 -4 9 16 12 79 12 l84 0 29
-175z m985 153 c63 -32 90 -77 90 -148 0 -67 -27 -117 -77 -140 -18 -8 -33
-18 -33 -22 0 -4 23 -46 50 -92 74 -125 76 -116 -21 -116 l-84 0 -50 96 c-27
53 -53 98 -57 100 -5 3 -8 -40 -8 -95 l0 -101 -80 0 -80 0 0 270 0 270 153 0
c139 0 157 -2 197 -22z m1550 -140 c34 -90 65 -166 69 -170 4 -5 36 69 71 162
l63 170 94 0 93 0 0 -270 0 -270 -80 0 -80 0 -1 138 -1 137 -46 -138 -47 -138
-65 3 -65 3 -47 135 -47 135 0 -137 -1 -138 -80 0 -80 0 0 270 0 270 94 0 93
0 63 -162z"/>
<path d="M7444 9031 c-71 -44 -72 -186 -2 -235 36 -26 120 -21 151 8 58 54 60
155 2 213 -27 27 -41 33 -76 33 -26 0 -57 -8 -75 -19z"/>
<path d="M9314 9031 c-71 -44 -72 -186 -2 -235 36 -26 120 -21 151 8 58 54 60
155 2 213 -27 27 -41 33 -76 33 -26 0 -57 -8 -75 -19z"/>
<path d="M9904 9031 c-71 -44 -72 -186 -2 -235 36 -26 120 -21 151 8 58 54 60
155 2 213 -27 27 -41 33 -76 33 -26 0 -57 -8 -75 -19z"/>
<path d="M3266 8933 c-14 -43 -26 -81 -26 -86 0 -4 25 -7 55 -7 30 0 55 3 55
8 0 12 -46 152 -52 158 -3 3 -18 -30 -32 -73z"/>
<path d="M8800 9000 l0 -60 38 0 c59 0 87 19 87 60 0 41 -28 60 -87 60 l-38 0
0 -60z"/>
<path d="M11582 8015 c2 -63 6 -116 9 -119 2 -2 46 -6 97 -8 l92 -4 0 123 0
123 -101 0 -102 0 5 -115z"/>
<path d="M1750 7710 l0 -80 5110 0 5110 0 0 80 0 80 -5110 0 -5110 0 0 -80z"/>
<path d="M1945 7548 c-3 -7 -4 -845 -3 -1863 l3 -1850 148 -3 147 -3 0 1866 0
1865 -145 0 c-107 0 -147 -3 -150 -12z"/>
<path d="M4695 7548 c-3 -7 -4 -845 -3 -1863 l3 -1850 148 -3 147 -3 0 1866 0
1865 -145 0 c-107 0 -147 -3 -150 -12z"/>
<path d="M8760 5680 l0 -1860 150 0 150 0 0 1860 0 1860 -150 0 -150 0 0
-1860z"/>
<path d="M11500 5680 l0 -1860 145 0 145 0 0 1860 0 1860 -145 0 -145 0 0
-1860z"/>
<path d="M6560 5230 l0 -1060 65 0 65 0 0 1060 0 1060 -65 0 -65 0 0 -1060z"/>
<path d="M7080 5230 l0 -1060 65 0 65 0 0 1060 0 1060 -65 0 -65 0 0 -1060z"/>
<path d="M1955 3737 c-3 -7 -4 -143 -3 -302 l3 -290 138 -3 137 -3 0 306 0
305 -135 0 c-100 0 -137 -3 -140 -13z"/>
<path d="M4692 3448 l3 -303 138 -3 137 -3 0 306 0 305 -140 0 -140 0 2 -302z"/>
<path d="M8760 3445 l0 -306 138 3 137 3 0 300 0 300 -137 3 -138 3 0 -306z"/>
<path d="M11495 3737 c-3 -7 -4 -143 -3 -302 l3 -290 138 -3 137 -3 0 306 0
305 -135 0 c-100 0 -137 -3 -140 -13z"/>
</g>
</svg>
