<?xml version="1.0" standalone="no"?>
<!DOCTYPE svg PUBLIC "-//W3C//DTD SVG 20010904//EN"
 "http://www.w3.org/TR/2001/REC-SVG-20010904/DTD/svg10.dtd">
<svg version="1.0" xmlns="http://www.w3.org/2000/svg"
 width="3004.000000pt" height="3004.000000pt" viewBox="0 0 3004.000000 3004.000000"
 preserveAspectRatio="xMidYMid meet">

<g transform="translate(0.000000,3004.000000) scale(0.100000,-0.100000)"
fill="#000000" stroke="none">
<path d="M10 15020 l0 -15010 15010 0 15010 0 0 15010 0 15010 -15010 0
-15010 0 0 -15010z m15775 9521 c1103 -100 2072 -357 3050 -811 208 -97 261
-124 520 -263 372 -200 846 -510 1190 -777 735 -573 1377 -1248 1902 -2000
836 -1200 1370 -2596 1547 -4050 52 -424 61 -580 61 -1110 0 -388 -4 -539 -18
-700 -47 -546 -121 -1002 -243 -1490 -47 -191 -119 -448 -126 -455 -3 -3 -230
64 -235 69 -1 1 11 46 27 99 132 439 255 1068 304 1547 37 355 41 453 41 925
0 490 -6 621 -46 980 -199 1800 -936 3464 -2143 4840 -167 191 -548 574 -736
742 -1261 1121 -2776 1847 -4419 2118 -467 76 -800 105 -1301 112 -502 7 -848
-11 -1280 -67 -1801 -234 -3450 -1004 -4815 -2249 -130 -118 -517 -515 -646
-661 -598 -682 -1076 -1429 -1441 -2250 -409 -920 -644 -1863 -730 -2925 -17
-214 -17 -1066 0 -1270 59 -693 157 -1237 328 -1824 24 -84 43 -155 42 -156
-5 -4 -232 -74 -234 -72 -7 7 -103 353 -144 517 -175 709 -260 1413 -260 2162
0 652 51 1177 176 1798 309 1542 1006 2952 2058 4165 132 152 412 442 591 612
631 598 1332 1094 2105 1490 938 481 1978 796 3035 922 433 51 616 60 1155 56
360 -2 503 -8 685 -24z m-495 -551 c485 -17 812 -53 1275 -137 410 -74 731
-158 1155 -300 840 -281 1647 -704 2353 -1233 348 -261 602 -479 913 -786 167
-166 347 -358 451 -484 12 -14 48 -56 80 -95 79 -93 269 -336 364 -466 144
-198 409 -609 499 -774 18 -33 40 -73 50 -90 213 -365 474 -963 633 -1450 391
-1199 511 -2445 356 -3705 -52 -427 -159 -941 -274 -1326 l-28 -92 -36 10
c-20 5 -40 13 -44 17 -4 5 10 71 32 147 123 425 220 920 270 1379 31 282 41
446 48 785 21 1128 -179 2214 -605 3280 -128 321 -380 832 -540 1095 -30 50
-66 110 -80 135 -65 115 -369 561 -463 680 -235 296 -242 305 -359 439 -500
576 -1087 1090 -1720 1506 -146 96 -200 130 -415 256 -154 91 -674 356 -800
409 -44 18 -102 43 -130 55 -51 23 -283 114 -430 168 -503 185 -1187 348
-1770 422 -620 78 -1311 85 -1935 19 -582 -61 -1205 -194 -1735 -369 -176 -59
-406 -142 -465 -169 -19 -8 -91 -39 -160 -67 -825 -338 -1686 -884 -2360
-1496 -19 -17 -46 -41 -60 -53 -33 -28 -292 -285 -406 -402 -77 -80 -144 -153
-298 -328 -33 -37 -104 -125 -224 -274 -105 -132 -304 -409 -414 -576 -94
-144 -198 -309 -198 -315 0 -1 -31 -56 -68 -121 -447 -778 -768 -1634 -941
-2514 -102 -523 -147 -945 -158 -1485 -13 -676 49 -1299 193 -1960 45 -205
128 -526 159 -614 8 -24 15 -49 15 -56 0 -10 -78 -41 -85 -33 -10 13 -82 263
-131 460 -242 969 -308 2016 -193 3028 110 963 392 1915 829 2792 153 307 316
588 529 913 200 305 498 689 771 990 214 237 537 553 750 735 14 12 34 29 45
38 115 99 435 350 512 402 12 8 73 51 135 96 373 268 964 600 1428 804 496
218 1071 407 1555 510 77 17 158 35 180 40 296 70 898 141 1345 159 287 12
301 12 600 1z m-370 -449 l0 -49 -46 -4 c-25 -2 -47 -1 -50 1 -6 6 -5 87 1 92
2 3 25 6 50 8 l45 2 0 -50z m200 -1 l0 -50 -50 0 -50 0 0 43 c0 24 3 47 7 50
3 4 26 7 50 7 l43 0 0 -50z m-400 -10 l0 -50 -44 0 c-48 0 -56 9 -56 66 l0 34
50 0 50 0 0 -50z m600 -1 l0 -50 -47 3 -48 3 -3 48 -3 47 50 0 51 0 0 -51z
m178 41 c20 0 22 -5 22 -50 0 -54 0 -54 -62 -44 -37 6 -38 8 -38 49 0 48 7 58
35 51 11 -3 30 -6 43 -6z m-976 -42 c3 -24 3 -46 1 -50 -2 -5 -24 -8 -48 -8
-43 0 -43 1 -50 40 -9 52 -2 60 50 60 l43 0 4 -42z m-202 13 c0 -10 3 -32 6
-49 6 -30 5 -31 -40 -37 -26 -4 -49 -5 -51 -3 -3 3 -8 25 -11 51 l-7 46 39 4
c22 2 45 4 52 5 6 1 12 -6 12 -17z m1400 -31 l0 -50 -50 0 -50 0 0 43 c0 24 3
47 7 50 3 4 26 7 50 7 l43 0 0 -50z m171 30 c28 0 29 -1 29 -50 l0 -50 -34 0
c-57 0 -66 8 -66 54 0 47 7 59 28 51 7 -3 27 -5 43 -5z m-1764 -97 c-3 -3 -26
-8 -52 -10 -40 -5 -45 -3 -45 14 0 11 -3 34 -6 51 -6 31 -6 31 42 34 l49 3 9
-43 c4 -24 6 -46 3 -49z m1991 25 l3 -48 -50 0 -51 0 0 51 0 50 48 -3 47 -3 3
-47z m-2192 -3 c3 -25 5 -47 3 -49 -2 -2 -25 -7 -51 -10 -43 -7 -48 -5 -48 12
0 11 -3 33 -6 50 -6 28 -4 31 22 35 72 10 72 10 80 -38z m2391 12 c3 -3 2 -26
-1 -50 l-7 -44 -42 8 c-23 4 -45 8 -49 9 -6 0 -1 58 7 86 3 12 79 4 92 -9z
m-2593 -13 c3 -9 6 -30 6 -49 0 -30 -3 -33 -42 -39 -45 -7 -58 2 -58 41 0 12
-3 28 -6 36 -4 11 2 17 23 20 57 8 71 7 77 -9z m2793 -18 c3 -2 1 -25 -2 -51
l-7 -46 -42 6 c-54 9 -58 14 -50 65 l7 42 45 -6 c25 -3 47 -8 49 -10z m-2993
-13 c20 -73 19 -81 -16 -88 -18 -3 -41 -9 -50 -11 -13 -4 -18 4 -24 41 -3 25
-4 48 -1 52 5 4 54 18 79 22 4 1 9 -7 12 -16z m3161 -19 c31 -6 36 -10 31 -28
-3 -11 -6 -28 -6 -36 -1 -35 -15 -42 -59 -30 -44 11 -47 19 -35 79 4 21 11 30
20 27 7 -3 29 -8 49 -12z m-3348 -61 c11 -42 11 -42 -21 -48 -17 -4 -39 -9
-48 -11 -13 -4 -19 5 -27 33 -6 21 -11 43 -11 50 0 13 81 34 91 24 3 -3 11
-25 16 -48z m3572 11 c2 -2 0 -24 -4 -50 l-7 -46 -40 6 c-23 4 -45 9 -50 12
-8 5 -1 69 9 87 5 7 82 0 92 -9z m-3770 -41 c14 -50 14 -63 -1 -63 -7 0 -29
-3 -49 -6 -34 -6 -36 -4 -42 22 -3 16 -9 37 -12 46 -5 13 1 19 27 27 58 16 66
14 77 -26z m3969 -8 c4 -4 -20 -95 -25 -95 -2 0 -24 5 -48 11 -42 11 -44 13
-38 38 16 69 18 70 65 59 24 -6 44 -12 46 -13z m-4162 -42 c4 -21 8 -42 8 -47
1 -6 -67 -33 -90 -36 -2 0 -24 87 -24 94 0 6 57 24 81 25 12 1 19 -11 25 -36z
m4323 -4 c35 -12 36 -16 20 -69 l-12 -38 -41 12 c-45 13 -54 33 -37 79 12 30
23 32 70 16z m-4516 -56 c16 -53 16 -53 -50 -67 -31 -7 -32 -6 -43 34 -13 47
-11 50 33 67 46 17 45 17 60 -34z m4699 1 l46 -15 -15 -45 c-8 -24 -21 -44
-27 -44 -26 0 -76 22 -76 33 0 15 20 87 24 87 1 0 23 -7 48 -16z m-4893 -45
c18 -51 14 -66 -20 -78 -50 -17 -56 -14 -72 33 l-15 45 41 15 c56 19 54 20 66
-15z m5095 -23 l34 -14 -15 -47 c-12 -36 -19 -45 -32 -39 -9 3 -30 10 -48 15
l-32 10 16 44 c16 49 26 53 77 31z m-5289 -33 c27 -66 26 -70 -22 -88 -24 -9
-46 -16 -47 -14 -6 7 -26 72 -26 84 0 12 43 32 71 34 9 1 20 -7 24 -16z m5465
-29 c22 -9 40 -22 40 -29 0 -26 -23 -75 -34 -75 -11 0 -76 19 -83 25 -4 2 28
95 33 95 2 0 22 -7 44 -16z m-5631 -101 c1 -6 -19 -18 -43 -26 l-43 -15 -17
34 c-23 50 -21 58 27 76 l42 15 17 -36 c9 -20 17 -41 17 -48z m5818 30 c21
-10 40 -19 42 -20 2 -1 -4 -23 -13 -47 l-17 -45 -42 16 c-23 9 -44 18 -46 19
-4 4 29 94 34 94 3 0 21 -8 42 -17z m-6017 -65 l19 -43 -37 -17 c-20 -10 -42
-18 -48 -18 -10 0 -48 80 -41 86 5 6 72 33 80 34 4 0 17 -19 27 -42z m6207
-15 c21 -10 39 -18 40 -19 2 0 -5 -19 -15 -42 -19 -46 -31 -50 -79 -24 l-32
17 19 43 c10 23 21 42 24 42 3 0 22 -8 43 -17z m-2314 -113 c8 -30 32 -118 52
-195 21 -77 42 -157 48 -177 l10 -38 56 1 c31 0 148 6 261 13 113 7 207 12
208 10 4 -2 -98 -70 -333 -222 -55 -35 -102 -66 -104 -68 -1 -1 17 -56 42
-121 51 -133 131 -338 142 -367 8 -18 -49 26 -319 249 -34 28 -69 56 -78 64
-15 11 -39 -5 -210 -144 -106 -87 -199 -165 -205 -173 -24 -29 -14 6 41 145
108 278 131 338 131 345 0 7 -64 49 -348 229 -54 34 -96 63 -95 64 2 1 107 -4
233 -11 127 -7 246 -13 266 -13 l36 -1 32 128 c18 70 43 165 56 212 13 47 29
105 36 130 13 50 11 54 42 -60z m-4080 55 c23 -48 22 -49 -18 -68 -48 -23 -49
-22 -68 18 -23 48 -22 53 16 69 47 21 52 20 70 -19z m2143 -180 c19 -71 47
-176 62 -233 l27 -103 45 5 c70 8 470 29 475 25 4 -5 -95 -71 -280 -190 -71
-45 -136 -88 -143 -94 -11 -10 -8 -25 17 -86 49 -121 161 -412 158 -415 -2 -2
-59 43 -252 201 -54 44 -111 91 -127 103 -16 13 -35 22 -42 19 -13 -5 -203
-158 -340 -274 -33 -28 -62 -50 -64 -48 -1 1 2 13 7 26 55 131 180 474 174
476 -4 2 -44 27 -88 56 -44 29 -140 90 -213 136 -73 46 -131 86 -128 88 4 5
457 -15 498 -22 24 -4 27 0 36 38 5 23 35 138 66 256 31 118 56 217 57 220 1
9 16 -41 55 -184z m4431 158 c21 -10 40 -19 42 -20 9 -6 -33 -83 -46 -83 -19
0 -73 29 -73 39 0 12 29 81 35 81 2 0 21 -8 42 -17z m-6754 -65 c19 -47 17
-51 -34 -72 l-36 -15 -21 45 -22 45 42 19 c24 11 45 20 48 20 3 0 13 -19 23
-42z m6942 -25 c40 -19 41 -20 18 -68 -19 -40 -19 -40 -67 -20 -41 17 -42 23
-20 71 19 39 21 40 69 17z m-7122 -58 c9 -20 17 -39 17 -44 0 -9 -78 -47 -83
-40 -2 2 -13 21 -25 41 l-21 38 37 20 c51 26 56 25 75 -15z m7302 -32 c28 -14
34 -21 29 -37 -10 -30 -35 -66 -46 -66 -8 0 -67 27 -76 35 -6 6 39 85 48 85 5
0 25 -8 45 -17z m-7482 -58 c9 -20 17 -40 17 -44 0 -8 -64 -51 -75 -51 -6 0
-45 67 -45 78 0 10 64 50 81 52 3 0 13 -16 22 -35z m7654 -37 c21 -12 39 -22
41 -24 2 -1 -31 -64 -44 -82 -1 -2 -15 3 -31 12 -57 31 -57 30 -34 75 12 22
23 41 26 41 2 0 21 -10 42 -22z m-7828 -64 c12 -19 21 -39 21 -43 0 -8 -64
-41 -79 -41 -12 0 -54 71 -46 78 12 13 61 41 72 41 6 1 20 -15 32 -35z m7989
-29 c55 -30 55 -30 38 -61 -33 -63 -31 -62 -114 -9 -3 2 42 85 46 85 2 0 15
-7 30 -15z m-8159 -75 l22 -39 -42 -26 c-22 -15 -42 -25 -43 -23 -11 15 -46
77 -46 81 0 7 63 47 76 47 6 0 20 -18 33 -40z m8373 -57 c7 -9 4 -23 -12 -48
-12 -19 -24 -35 -27 -35 -3 0 -23 10 -44 22 l-38 21 16 31 c28 55 32 58 65 38
16 -9 34 -22 40 -29z m-7094 -303 l57 -215 80 3 c44 2 141 7 215 12 74 6 160
10 190 10 l55 0 -183 -120 c-100 -66 -195 -127 -210 -135 -68 -37 -69 -20 23
-259 46 -119 91 -230 99 -246 20 -41 9 -44 -33 -9 -71 60 -174 144 -206 169
-19 14 -65 51 -104 83 l-70 58 -113 -92 c-208 -171 -283 -234 -286 -242 -2 -4
-7 -5 -12 -2 -4 2 35 116 88 252 l95 247 -29 22 c-16 13 -76 53 -134 89 -194
122 -270 171 -280 181 -5 5 72 4 198 -3 114 -6 236 -12 272 -12 l66 -1 48 183
c26 100 57 218 68 262 l22 80 13 -50 c7 -27 39 -147 71 -265z m-1454 259 c15
-22 26 -42 24 -43 -42 -30 -68 -46 -76 -46 -10 0 -52 64 -52 78 0 5 60 45 76
52 1 0 14 -18 28 -41z m8694 -47 l34 -28 -24 -37 c-12 -20 -27 -36 -31 -37 -4
0 -22 10 -40 22 -18 13 -34 24 -36 25 -6 4 48 83 57 83 4 0 22 -13 40 -28z
m-8838 -99 c0 -6 -16 -22 -37 -34 l-36 -23 -29 34 c-15 19 -28 37 -28 41 0 3
17 18 38 32 l37 25 27 -31 c15 -18 28 -37 28 -44z m7076 -183 c37 -140 68
-256 69 -257 1 -2 113 4 250 13 136 8 256 14 267 12 14 -2 -5 -19 -66 -58 -47
-30 -143 -92 -213 -138 -71 -46 -134 -87 -141 -91 -10 -6 5 -53 63 -202 100
-254 115 -292 115 -302 0 -8 -37 21 -211 163 -57 46 -128 104 -157 127 l-53
43 -112 -92 c-62 -51 -154 -127 -206 -170 -52 -43 -96 -76 -98 -75 -2 2 6 26
17 53 92 230 170 439 167 448 -3 7 -75 57 -161 111 -86 55 -187 120 -224 143
l-67 44 140 -7 c77 -4 199 -10 270 -14 72 -4 133 -5 137 -2 3 3 29 96 58 206
60 233 81 308 85 303 2 -2 34 -118 71 -258z m1926 171 l37 -28 -25 -36 c-14
-21 -27 -37 -31 -37 -12 0 -73 42 -73 51 0 11 43 79 50 79 3 0 22 -13 42 -29z
m-9188 -68 l25 -36 -37 -28 -37 -28 -27 32 c-15 18 -28 37 -28 44 0 10 57 52
72 53 4 0 18 -16 32 -37z m9353 -49 c18 -14 33 -28 33 -32 -1 -4 -14 -22 -30
-41 l-28 -33 -36 27 c-20 15 -36 31 -36 35 0 10 49 70 57 70 4 0 21 -11 40
-26z m-9513 -68 l26 -35 -36 -27 c-40 -31 -54 -28 -82 19 -17 27 -16 28 13 52
40 32 48 31 79 -9z m9674 -53 l33 -28 -26 -37 c-14 -21 -29 -38 -33 -38 -4 0
-23 13 -42 29 l-34 28 27 37 c16 20 31 36 35 36 4 0 22 -12 40 -27z m-9834
-65 l26 -33 -37 -33 -38 -33 -27 33 c-15 18 -28 37 -28 41 0 11 53 56 67 57 6
0 23 -15 37 -32z m10003 -71 l22 -19 -27 -34 c-15 -19 -31 -34 -35 -34 -13 0
-67 43 -67 53 0 6 12 25 26 44 28 36 27 37 81 -10z m-10161 -54 l27 -36 -31
-29 c-18 -15 -36 -28 -41 -28 -5 0 -21 16 -35 35 l-27 35 33 30 c18 16 36 30
39 30 4 0 19 -16 35 -37z m10303 -62 l34 -28 -28 -37 c-15 -20 -30 -36 -34
-36 -4 0 -22 13 -41 28 l-34 29 28 36 c16 20 31 37 35 37 3 0 21 -13 40 -29z
m-10455 -67 l29 -37 -35 -33 -35 -33 -32 33 c-17 17 -31 36 -31 41 0 8 60 64
70 65 3 0 18 -16 34 -36z m10604 -64 c17 -16 32 -32 32 -35 0 -4 -13 -20 -29
-37 -31 -33 -47 -31 -85 11 -18 20 -18 21 10 55 16 19 31 35 34 35 3 0 20 -13
38 -29z m-10758 -135 l-34 -35 -35 35 -35 35 34 35 34 35 35 -35 35 -35 -34
-35z m10910 -5 l34 -31 -36 -35 -36 -36 -36 33 -36 33 32 33 c17 18 35 33 38
33 4 0 22 -14 40 -30z m-9950 -226 c36 -135 68 -250 72 -256 4 -8 76 -7 245 1
131 7 248 14 261 17 12 2 22 1 22 -4 0 -5 -97 -71 -216 -148 -119 -76 -218
-143 -220 -149 -3 -6 12 -51 32 -100 44 -108 154 -395 154 -400 0 -3 -53 39
-117 91 -275 225 -304 246 -316 236 -34 -25 -195 -156 -290 -235 -59 -49 -110
-87 -113 -85 -2 3 36 108 85 234 49 126 91 238 94 249 5 16 -3 25 -35 45 -22
14 -83 52 -134 85 -51 33 -135 86 -185 118 -50 32 -90 59 -88 61 2 2 65 -1
139 -5 74 -4 194 -10 267 -14 l131 -8 15 49 c8 27 38 142 68 257 29 114 55
207 59 207 3 0 34 -111 70 -246z m-1108 169 c35 -34 35 -43 -2 -78 l-30 -29
-35 34 -35 34 32 33 c18 18 34 33 37 33 3 0 18 -12 33 -27z m11198 -148 l-34
-35 -35 35 -35 35 34 35 34 35 35 -35 35 -35 -34 -35z m-11323 -11 l22 -21
-33 -32 c-37 -36 -52 -34 -90 8 -19 21 -19 22 14 56 36 37 37 37 87 -11z
m9865 -544 c5 -13 24 -14 124 -9 411 22 410 22 394 7 -8 -8 -105 -73 -215
-143 -110 -70 -204 -131 -208 -135 -7 -7 4 -38 125 -344 32 -82 57 -151 54
-153 -2 -2 -95 69 -206 159 -111 90 -205 164 -208 165 -4 2 -72 -52 -152 -118
-170 -141 -270 -221 -270 -215 0 2 43 115 95 250 52 136 95 250 95 254 0 4
-37 30 -81 57 -137 86 -333 213 -354 229 -19 15 -19 15 10 11 46 -7 515 -28
518 -24 2 2 30 105 62 229 32 124 63 241 68 260 9 32 15 16 76 -215 37 -137
69 -257 73 -265z m1606 477 l32 -33 -35 -34 -35 -34 -36 36 -37 36 34 31 c19
17 36 31 40 31 3 0 19 -15 37 -33z m-11624 -66 c30 -32 28 -48 -13 -86 -22
-19 -22 -19 -56 16 l-35 34 31 33 c16 17 33 32 38 32 4 0 20 -13 35 -29z
m11755 -147 c-18 -19 -35 -34 -38 -33 -4 0 -19 16 -35 35 l-29 35 34 35 34 35
34 -36 33 -37 -33 -34z m-11884 -4 l29 -30 -34 -35 -33 -34 -33 27 c-18 15
-33 31 -33 36 -1 14 50 66 64 66 6 0 24 -14 40 -30z m12044 -116 c0 -5 -15
-21 -33 -36 l-33 -27 -34 35 -34 35 38 35 37 34 30 -34 c17 -18 30 -38 29 -42z
m-12177 -33 l33 -30 -34 -35 -34 -35 -33 27 c-40 32 -41 35 -11 72 28 37 39
37 79 1z m12282 -82 c14 -17 26 -34 26 -37 0 -4 -16 -20 -36 -36 l-36 -28 -28
33 c-16 19 -29 37 -30 41 0 7 62 58 72 58 3 0 18 -14 32 -31z m-6146 -46 c29
-74 35 -123 39 -338 l5 -231 202 -17 c603 -52 1229 -181 1787 -367 976 -326
1820 -850 2514 -1561 273 -280 468 -516 692 -834 236 -337 457 -727 524 -925
31 -93 37 -185 14 -210 -44 -48 -121 -38 -422 54 -384 118 -594 150 -833 127
-285 -26 -535 -118 -796 -294 -149 -99 -196 -141 -314 -278 -210 -244 -257
-266 -389 -182 -31 20 -130 112 -221 205 -179 185 -272 261 -395 325 -310 160
-662 243 -970 230 -422 -18 -769 -186 -1235 -597 -163 -144 -246 -200 -295
-200 -34 0 -94 52 -285 247 -131 133 -200 194 -270 241 -385 257 -903 359
-1358 266 -125 -25 -308 -90 -448 -159 -232 -114 -444 -284 -603 -485 -41 -52
-80 -98 -85 -102 -6 -4 -51 -8 -100 -8 -102 0 -82 -14 -236 165 -108 126 -176
192 -270 265 -216 165 -457 279 -689 326 -69 13 -120 15 -275 11 -197 -6 -261
-14 -621 -81 -281 -51 -412 -69 -485 -64 -93 7 -110 18 -110 72 0 92 58 206
271 533 190 293 227 350 408 629 158 243 191 288 330 454 142 169 181 212 351
380 442 439 938 791 1515 1075 723 356 1470 576 2410 710 94 13 454 55 478 55
4 0 7 105 5 233 -2 254 4 302 49 336 15 13 41 21 63 21 32 0 39 -4 48 -27z
m-6268 -22 l34 -28 -27 -37 c-16 -20 -31 -36 -35 -36 -4 0 -23 13 -42 28 l-34
29 28 36 c16 20 31 37 35 37 4 0 22 -13 41 -29z m12538 -153 c-18 -15 -37 -28
-43 -28 -5 0 -22 15 -37 34 l-28 35 38 31 37 31 33 -38 33 -38 -33 -27z
m-12661 -4 l33 -25 -27 -39 c-16 -22 -30 -40 -33 -40 -3 1 -21 13 -40 29 l-34
29 24 36 c14 20 29 36 34 36 5 0 24 -12 43 -26z m12786 -92 l28 -37 -32 -27
c-18 -16 -38 -28 -44 -28 -5 0 -21 16 -35 36 l-24 36 34 29 c19 16 37 28 40
28 3 0 18 -16 33 -37z m-12907 -67 l34 -26 -26 -39 -26 -40 -30 18 c-50 29
-53 38 -27 77 13 19 28 35 33 35 5 0 24 -11 42 -25z m13044 -130 c0 -12 -53
-55 -68 -55 -10 0 -52 55 -52 69 0 5 15 21 33 35 l32 26 28 -32 c15 -18 27
-37 27 -43z m-13161 -33 l34 -28 -24 -37 c-13 -20 -28 -37 -32 -37 -4 0 -22
10 -40 22 -18 13 -34 24 -36 25 -6 4 48 83 57 83 4 0 23 -13 41 -28z m13255
-96 c14 -19 26 -37 26 -39 0 -2 -18 -17 -40 -32 -39 -27 -41 -28 -55 -9 -33
45 -40 65 -25 74 8 5 24 16 35 24 27 21 29 21 59 -18z m-13370 -67 c20 -12 36
-24 36 -28 0 -3 -11 -23 -25 -43 l-25 -37 -35 20 c-19 12 -37 25 -40 30 -6 9
36 79 47 79 4 0 23 -9 42 -21z m12102 -523 l18 -69 170 8 c94 4 213 10 264 14
51 3 95 5 97 2 4 -3 -147 -105 -352 -235 l-91 -59 28 -76 c15 -42 58 -152 94
-245 37 -93 64 -171 62 -174 -5 -4 -62 41 -290 228 -43 36 -89 73 -102 83
l-24 18 -131 -108 c-214 -176 -274 -223 -282 -223 -5 0 -6 3 -4 8 8 12 187
479 187 486 0 6 -212 147 -365 241 l-80 50 40 3 c22 2 121 -1 220 -7 99 -6
203 -11 230 -11 l50 0 59 228 c33 125 64 243 69 262 10 36 20 2 133 -424z
m1382 415 l22 -40 -42 -25 -42 -25 -23 37 c-12 20 -23 40 -23 44 0 8 62 48 76
48 6 0 20 -18 32 -39z m-12369 -216 c34 -126 65 -239 70 -250 8 -19 14 -20
132 -13 352 18 415 19 394 7 -11 -7 -83 -54 -160 -104 -77 -50 -171 -111 -208
-135 -47 -30 -67 -49 -64 -59 3 -9 46 -121 96 -250 50 -129 90 -235 89 -237
-2 -1 -44 31 -93 73 -50 41 -117 95 -150 121 -33 25 -62 49 -65 52 -3 3 -29
25 -58 49 l-52 43 -118 -95 c-64 -53 -159 -130 -209 -172 -51 -42 -93 -74 -93
-71 0 7 142 382 185 487 6 15 -108 95 -368 259 -37 23 -66 45 -63 48 3 3 121
-1 262 -8 149 -7 258 -9 263 -4 7 8 58 194 115 421 11 46 23 80 27 75 4 -4 35
-110 68 -237z m-1221 155 c17 -11 32 -23 32 -26 0 -13 -42 -74 -50 -74 -5 0
-25 9 -44 21 l-36 21 22 39 c25 45 31 46 76 19z m13692 -105 c25 -40 23 -46
-25 -73 l-34 -21 -21 33 c-11 18 -20 39 -20 45 0 10 57 51 72 51 3 0 16 -16
28 -35z m-13795 -66 c20 -12 34 -24 33 -28 -2 -3 -12 -23 -22 -43 l-19 -37
-41 21 c-23 11 -42 22 -44 23 -6 6 38 85 48 85 5 0 25 -10 45 -21z m13894
-103 c29 -46 27 -53 -18 -76 l-40 -20 -20 34 c-28 44 -27 51 12 74 43 27 42
27 66 -12z m-14011 -61 c57 -31 57 -30 32 -71 -13 -22 -25 -40 -26 -42 -3 -5
-84 38 -84 44 0 8 43 84 47 84 2 0 16 -7 31 -15z m14132 -160 c0 -6 -17 -17
-37 -25 -21 -8 -41 -16 -45 -18 -7 -3 -52 78 -46 83 2 1 21 12 43 23 l40 20
22 -37 c12 -20 23 -41 23 -46z m-14216 -22 c40 -20 43 -33 19 -74 -20 -34 -21
-34 -68 -12 -40 19 -41 20 -18 68 19 40 21 41 67 18z m14286 -113 c11 -21 20
-42 20 -44 0 -7 -81 -49 -85 -44 -1 2 -12 21 -23 43 l-20 40 41 22 c23 12 43
22 44 23 2 0 12 -18 23 -40z m-14375 -67 c40 -19 41 -20 18 -68 -19 -40 -20
-41 -68 -18 -40 19 -41 20 -18 68 19 40 20 41 68 18z m14470 -125 l15 -38 -40
-20 c-21 -11 -42 -20 -44 -20 -3 0 -14 19 -25 43 l-20 42 42 22 c47 24 50 23
72 -29z m-14557 -55 c21 -9 38 -17 39 -18 2 -1 -5 -20 -15 -43 -19 -46 -31
-50 -79 -24 l-32 17 19 43 c10 23 22 42 25 42 4 0 23 -8 43 -17z m14635 -118
c22 -47 22 -51 -10 -63 -16 -5 -36 -13 -45 -17 -13 -5 -21 2 -32 30 -21 49
-21 52 12 69 42 23 57 19 75 -19z m-14700 -72 c15 -7 26 -17 23 -21 -2 -4 -11
-24 -19 -44 l-16 -37 -38 15 c-54 22 -55 25 -36 72 19 45 26 46 86 15z m14775
-100 c5 -16 13 -36 17 -45 5 -13 -2 -21 -30 -32 -54 -23 -59 -21 -76 27 l-16
42 41 17 c54 22 52 22 64 -9z m-14863 -79 c28 -11 35 -19 30 -32 -4 -9 -12
-29 -17 -44 -12 -32 -14 -33 -62 -13 -40 17 -42 23 -24 72 14 37 21 39 73 17z
m14941 -119 c7 -19 14 -39 14 -44 0 -7 -69 -41 -84 -41 -5 0 -36 77 -36 89 0
8 52 28 78 30 7 1 20 -15 28 -34z m-15014 -67 c21 -6 37 -16 35 -22 -2 -6 -10
-28 -18 -49 -7 -20 -18 -35 -24 -33 -5 3 -26 10 -46 17 l-37 12 15 43 c16 48
18 49 75 32z m15078 -103 c26 -68 25 -71 -25 -88 l-46 -16 -9 25 c-25 64 -24
68 22 86 24 9 44 17 46 17 1 1 7 -10 12 -24z m-15115 -119 c-4 -11 -9 -31 -12
-43 -6 -26 -13 -27 -66 -12 -41 11 -43 17 -17 83 l9 25 46 -16 c40 -13 46 -18
40 -37z m15184 -87 c17 -50 14 -57 -29 -70 -46 -14 -47 -13 -65 38 -13 38 -13
38 18 50 51 19 64 16 76 -18z m-15270 -70 c26 -9 30 -15 25 -33 -23 -72 -26
-75 -83 -55 -34 12 -36 20 -20 68 12 34 27 38 78 20z m15331 -124 c16 -47 11
-56 -38 -70 l-42 -13 -10 37 c-14 52 -13 58 18 69 48 18 60 14 72 -23z
m-15397 -66 c29 -8 37 -14 33 -27 -3 -9 -8 -29 -12 -44 -7 -31 -23 -34 -73
-17 -22 8 -30 16 -27 28 3 9 8 28 12 44 7 30 12 31 67 16z m15450 -116 c3 -16
9 -36 12 -45 7 -18 -7 -27 -66 -41 -25 -6 -27 -4 -38 39 -7 26 -11 48 -9 49 7
6 65 24 79 24 10 1 19 -10 22 -26z m-15507 -74 c24 -6 44 -12 44 -13 -2 -19
-28 -87 -33 -87 -29 -2 -87 15 -87 24 0 19 20 87 26 87 3 0 25 -5 50 -11z
m15558 -125 c4 -19 9 -41 12 -48 3 -9 -10 -17 -40 -25 -25 -6 -47 -11 -49 -11
-5 0 -29 91 -25 95 3 2 75 22 89 24 4 1 10 -15 13 -35z m-15567 -78 c1 0 -3
-23 -9 -49 -10 -51 -14 -52 -71 -36 -34 9 -37 13 -31 37 15 67 12 65 62 57 26
-4 48 -8 49 -9z m15606 -93 c3 -5 8 -27 12 -50 l7 -42 -47 -6 c-25 -4 -48 -6
-50 -3 -2 2 -5 24 -7 48 -3 39 0 44 22 51 35 10 58 10 63 2z m-15689 -94 c38
-11 38 -11 32 -52 -4 -23 -9 -43 -11 -45 -9 -9 -95 10 -95 21 0 22 21 87 28
87 4 0 24 -5 46 -11z m15740 -141 c4 -23 3 -44 -1 -48 -4 -4 -27 -10 -50 -14
-31 -4 -43 -3 -43 6 0 7 -3 29 -6 50 -7 39 -1 43 67 47 24 1 27 -4 33 -41z
m-15756 -58 c11 0 14 -9 9 -45 -2 -26 -7 -48 -10 -51 -3 -3 -25 -2 -49 3 -43
9 -43 9 -39 48 4 53 8 58 43 51 17 -3 37 -6 46 -6z m15786 -112 c3 -13 6 -35
6 -50 0 -28 -1 -28 -73 -43 -11 -2 -19 5 -22 21 -3 13 -7 35 -10 49 -4 20 -1
26 17 29 42 9 63 14 69 15 4 0 9 -9 13 -21z m-15807 -92 c3 -2 1 -25 -2 -50
l-7 -45 -47 6 c-25 3 -47 7 -49 8 -2 2 0 24 4 50 l7 47 45 -6 c25 -3 47 -8 49
-10z m15837 -108 c3 -13 6 -35 6 -50 0 -23 -5 -28 -35 -34 -54 -10 -65 -1 -65
50 0 43 1 45 33 49 17 2 37 5 43 5 7 1 14 -8 18 -20z m-15868 -93 c4 -8 3 -31
0 -50 -6 -33 -10 -35 -44 -35 -51 0 -59 9 -54 58 l4 42 44 0 c31 0 46 -5 50
-15z m15899 -131 c3 -25 5 -47 3 -49 -2 -2 -24 -6 -49 -10 l-46 -7 -6 39 c-11
66 -15 63 74 71 13 2 19 -10 24 -44z m-15915 -73 c0 -10 -3 -33 -6 -50 -6 -30
-8 -31 -57 -31 l-50 0 7 38 c3 20 6 43 6 50 0 8 17 12 50 12 42 0 50 -3 50
-19z m15935 -127 c3 -25 5 -47 3 -49 -2 -1 -24 -6 -50 -9 -43 -7 -48 -5 -48
12 0 11 -3 33 -6 50 -6 28 -4 31 22 35 71 10 71 10 79 -39z m-15955 -81 c0
-59 -10 -73 -49 -73 -50 0 -58 9 -53 58 l4 42 49 0 c47 0 49 -1 49 -27z
m15970 -122 l0 -49 -42 -4 c-24 -3 -46 -3 -50 -1 -5 2 -8 24 -8 48 0 47 5 50
73 54 26 1 27 -1 27 -48z m-15984 -67 c-3 -9 -6 -31 -6 -50 l0 -35 -47 3 c-47
3 -48 3 -49 38 -1 55 4 60 58 60 42 0 49 -3 44 -16z m15994 -133 l0 -49 -46
-4 c-25 -2 -47 -1 -50 1 -2 2 -4 24 -4 47 0 46 6 51 68 53 32 1 32 1 32 -48z
m-16002 -98 l-3 -48 -47 -3 -48 -3 0 50 0 51 51 0 50 0 -3 -47z m16010 -105
l3 -48 -50 0 -51 0 0 51 0 50 48 -3 47 -3 3 -47z m-16018 -98 l0 -50 -50 0
-50 0 0 50 0 50 50 0 50 0 0 -50z m16018 -102 l3 -48 -50 0 -51 0 0 51 0 50
48 -3 47 -3 3 -47z m-9500 -39 c186 -49 332 -171 424 -354 55 -109 72 -193 66
-333 -5 -101 -10 -128 -37 -199 -79 -202 -238 -352 -441 -415 -62 -19 -96 -23
-200 -22 -108 0 -136 4 -207 28 -199 65 -357 224 -430 431 -25 72 -28 93 -28
215 0 154 11 198 75 317 51 94 100 153 175 210 182 138 387 179 603 122z
m3237 5 c237 -56 426 -248 496 -504 19 -67 16 -243 -4 -320 -51 -193 -181
-351 -362 -441 -372 -184 -834 22 -944 421 -49 175 -35 325 44 485 142 290
451 434 770 359z m-9757 -61 l-3 -48 -41 -3 c-45 -3 -54 8 -54 71 0 26 2 27
51 27 l50 0 -3 -47z m16012 -105 l0 -53 -50 3 -50 4 0 42 c0 24 3 46 7 49 3 4
26 7 50 7 l43 0 0 -52z m-16002 -95 l-3 -48 -47 -3 -48 -3 0 50 0 51 51 0 50
0 -3 -47z m15995 -61 c3 -4 3 -27 0 -52 l-5 -45 -49 3 c-46 4 -49 6 -49 30 0
61 9 72 56 72 23 0 45 -3 47 -8z m-16015 -186 c-55 -13 -68 -4 -68 48 l0 45
48 3 47 3 5 -45 c5 -45 5 -45 -32 -54z m15980 -12 c18 -5 22 -13 22 -50 0 -23
-3 -45 -7 -47 -5 -2 -27 -2 -50 1 l-43 4 0 49 c0 47 1 49 28 49 15 0 37 -3 50
-6z m-15930 -135 c3 -45 2 -47 -29 -53 -65 -13 -69 -11 -69 43 0 49 1 50 33
54 58 7 62 5 65 -44z m15917 -65 c18 -5 20 -11 15 -52 -3 -29 -10 -47 -17 -46
-7 1 -29 2 -48 3 l-35 1 0 50 c0 50 0 50 33 50 17 0 41 -3 52 -6z m-7826 -94
c207 -58 370 -200 453 -396 36 -85 51 -164 50 -270 -1 -263 -149 -490 -393
-604 -107 -49 -178 -63 -309 -58 -190 8 -315 63 -455 203 -138 138 -203 307
-192 500 11 203 97 373 252 497 161 130 400 181 594 128z m-8069 -39 l0 -48
-42 -7 c-48 -8 -58 1 -58 56 0 32 3 37 28 41 72 11 72 11 72 -42z m15885 -71
c3 -6 3 -29 0 -53 l-7 -43 -46 6 c-37 4 -47 9 -46 23 4 83 0 77 48 77 25 0 48
-5 51 -10z m-15861 -102 c3 -13 6 -35 6 -49 0 -24 -5 -27 -47 -33 -25 -3 -47
-5 -48 -4 -1 2 -5 24 -8 50 -6 43 -5 47 16 51 56 11 75 7 81 -15z m15835 -94
c1 -1 0 -25 -4 -52 l-6 -49 -42 8 c-23 4 -46 8 -50 9 -7 0 -2 54 8 87 2 7 18
9 47 6 24 -3 45 -7 47 -9z m-15800 -146 c1 -28 -10 -35 -68 -41 -22 -2 -26 3
-33 42 -4 25 -6 46 -4 48 2 2 23 7 47 11 48 9 56 1 58 -60z m5685 -72 c92 -69
165 -110 255 -141 283 -96 622 -28 845 169 16 14 32 26 36 26 12 0 84 -56 116
-91 30 -32 32 -39 37 -139 7 -124 33 -224 88 -336 21 -45 39 -85 39 -90 0 -5
-23 -27 -50 -49 -120 -95 -270 -305 -369 -517 -141 -301 -242 -630 -296 -960
l-6 -38 -759 0 c-743 0 -760 0 -760 19 0 11 7 102 15 204 73 901 300 1582 642
1925 39 39 77 72 84 72 6 0 44 -24 83 -54z m3258 -2 c165 -127 320 -179 533
-179 218 1 365 55 559 205 21 16 42 30 45 30 3 0 36 -28 72 -63 331 -313 541
-901 638 -1782 11 -99 23 -224 26 -277 l7 -98 -765 0 c-721 0 -766 1 -771 18
-2 9 -10 44 -16 77 -7 33 -34 150 -60 260 -124 510 -294 860 -538 1104 l-104
104 45 91 c56 111 77 189 86 324 7 88 11 106 32 130 43 48 114 111 126 112 7
0 45 -25 85 -56z m6826 21 c1 -1 -1 -23 -4 -50 l-7 -47 -45 6 c-25 3 -47 8
-50 11 -2 2 -1 25 2 50 l7 46 47 -7 c26 -4 48 -8 50 -9z m-15735 -123 c5 -24
7 -46 4 -48 -2 -2 -24 -7 -49 -10 l-46 -6 -7 42 c-8 46 -2 56 35 63 46 8 54 3
63 -41z m15676 -69 c21 -5 22 -10 17 -47 -9 -54 -16 -59 -65 -46 -43 11 -45
16 -35 69 7 33 28 39 83 24z m-15635 -125 c8 -48 4 -53 -46 -62 -42 -8 -45 -4
-54 52 -7 44 -2 47 67 51 24 1 27 -4 33 -41z m1884 -87 c17 -33 32 -64 32 -68
0 -5 -37 -29 -82 -53 -262 -137 -458 -241 -568 -300 -69 -37 -231 -123 -360
-190 -129 -68 -381 -200 -560 -295 -179 -95 -455 -241 -615 -325 -159 -84
-319 -168 -354 -187 l-64 -34 -37 68 c-21 37 -35 71 -31 74 5 6 168 92 906
481 105 56 260 138 345 183 85 45 209 110 275 145 66 35 280 147 475 251 195
103 407 214 470 248 63 33 120 61 125 61 6 0 25 -27 43 -59z m11986 3 c61 -31
154 -80 206 -109 52 -29 205 -110 340 -180 135 -70 277 -145 315 -165 257
-136 826 -437 1135 -600 447 -236 473 -250 482 -259 5 -4 -8 -37 -28 -74 l-35
-67 -52 26 c-29 15 -155 82 -282 149 -126 67 -293 155 -370 195 -77 40 -162
85 -190 100 -27 15 -178 95 -335 178 -693 364 -1372 723 -1378 727 -4 4 46
105 60 123 6 6 13 12 16 12 3 0 55 -25 116 -56z m1709 15 c42 -11 41 -10 26
-63 -11 -38 -11 -38 -52 -32 -23 4 -45 10 -48 14 -10 12 11 92 24 92 7 0 29
-5 50 -11z m-15534 -123 c6 -25 11 -47 11 -49 0 -3 -16 -8 -36 -11 -19 -4 -41
-9 -48 -12 -9 -4 -16 7 -20 31 -4 20 -9 42 -12 50 -4 8 8 16 33 23 59 15 60
15 72 -32z m15485 -72 c40 -7 41 -10 24 -66 -10 -33 -15 -38 -32 -33 -12 3
-34 8 -49 12 -17 3 -26 11 -23 19 3 7 8 29 12 49 4 24 11 35 20 31 7 -3 29 -8
48 -12z m-15435 -118 c6 -25 11 -47 11 -49 0 -3 -12 -8 -27 -11 -16 -4 -36 -9
-45 -12 -18 -5 -28 10 -41 67 -6 24 -3 27 36 36 23 6 45 11 48 12 4 0 12 -19
18 -43z m15413 -84 c10 -10 -12 -92 -26 -92 -20 0 -86 21 -86 27 0 3 5 24 12
45 12 40 12 40 52 33 23 -3 44 -9 48 -13z m-8289 -42 c77 -63 187 -120 297
-155 112 -36 297 -46 416 -21 143 28 287 98 386 186 58 50 57 51 164 -63 231
-244 407 -647 514 -1177 54 -271 105 -658 112 -860 l3 -75 -1352 -3 -1353 -2
0 47 c0 222 102 876 181 1163 61 220 150 458 211 563 15 26 28 50 28 53 0 10
87 143 133 204 49 64 174 189 190 190 4 0 36 -23 70 -50z m-7059 -96 c5 -17 0
-23 -33 -32 -55 -17 -57 -16 -70 29 -14 47 -10 54 39 67 37 9 43 3 64 -64z
m1646 -664 c205 -12 250 -21 243 -49 -3 -11 -14 -28 -24 -37 -18 -17 -76 -17
-918 -16 l-899 3 -12 -73 c-42 -259 -85 -393 -174 -536 -193 -310 -369 -461
-706 -606 -197 -85 -286 -110 -445 -126 -60 -6 -129 -13 -152 -16 l-43 -5 0
-1143 c0 -628 -3 -1582 -7 -2118 l-6 -976 49 -6 c322 -41 466 -79 680 -181
261 -125 515 -360 649 -600 78 -139 137 -328 151 -486 l6 -76 172 -6 c94 -4
499 -7 899 -7 456 0 735 -4 747 -10 16 -8 40 -58 40 -81 0 -5 -443 -9 -985 -9
-812 0 -985 2 -985 13 0 8 -5 63 -11 123 -29 287 -134 535 -309 728 -176 194
-284 265 -580 381 -149 58 -243 78 -460 95 -74 7 -145 16 -157 20 l-23 9 0
2210 0 2209 37 6 c21 3 79 11 128 16 313 37 502 87 703 189 173 88 319 221
437 396 152 227 211 388 223 614 l7 125 32 8 c88 23 1373 36 1693 18z m13231
-10 l407 0 6 -87 c15 -204 50 -341 122 -485 174 -346 431 -565 799 -681 109
-34 212 -55 390 -77 83 -11 167 -22 188 -26 l37 -6 0 -2214 0 -2214 -22 -4
c-13 -2 -88 -12 -168 -21 -294 -32 -427 -67 -590 -151 -148 -77 -279 -173
-395 -289 -215 -215 -325 -453 -355 -770 -5 -60 -10 -114 -10 -120 0 -14
-1867 -19 -1920 -5 -50 13 -54 21 -36 65 11 25 21 35 38 35 13 0 422 0 911 0
711 0 888 2 891 12 2 7 11 58 19 113 73 466 350 832 792 1045 172 83 427 155
620 175 33 3 70 8 83 11 l22 4 0 2120 0 2119 -42 5 c-24 3 -70 8 -103 11 -112
12 -303 55 -412 93 -246 88 -395 182 -573 361 -218 219 -306 390 -379 736 -18
82 -33 150 -34 150 -1 1 -159 -2 -352 -7 -409 -11 -1244 -4 -1362 12 -45 5
-93 14 -108 20 -25 9 -25 11 -10 39 8 16 23 32 32 35 10 3 263 3 563 1 300 -3
728 -5 951 -5z m-12806 -404 c50 -47 66 -66 55 -70 -8 -3 -395 -7 -860 -9
l-845 -2 -37 -98 c-103 -275 -213 -444 -427 -658 -69 -69 -166 -156 -216 -192
-162 -121 -495 -274 -713 -327 -24 -6 -52 -20 -63 -31 -19 -19 -19 -48 -19
-1793 l0 -1773 103 -32 c155 -48 311 -108 420 -162 290 -144 564 -388 750
-668 111 -165 153 -256 177 -383 6 -32 17 -61 23 -65 7 -4 384 -6 838 -4 595
2 828 0 833 -8 4 -6 -15 -33 -43 -61 l-50 -50 -840 0 -840 0 -24 33 c-13 17
-34 70 -47 117 -111 402 -420 747 -866 968 -178 89 -407 167 -527 180 l-62 7
-3 1911 -2 1911 97 16 c281 46 669 230 869 411 76 69 284 315 354 419 80 120
134 251 164 397 l13 65 234 5 c129 3 515 7 859 8 l625 2 70 -64z m12865 38 c0
-134 154 -459 305 -644 235 -287 479 -441 938 -591 l247 -81 0 -1899 0 -1899
-22 -4 c-13 -3 -57 -10 -98 -16 -148 -22 -267 -72 -530 -222 -286 -164 -336
-204 -503 -403 -183 -219 -272 -372 -317 -548 -13 -48 -28 -94 -34 -102 -10
-13 -125 -15 -866 -15 l-855 0 -52 55 c-29 31 -53 58 -53 60 0 3 384 5 854 5
805 0 855 1 859 18 3 9 8 33 11 53 14 82 119 299 194 402 76 105 229 281 305
354 186 177 400 300 687 396 74 25 160 55 191 66 l56 21 6 608 c4 334 7 1139
7 1789 l0 1182 -42 11 c-108 28 -224 62 -233 70 -5 4 -109 57 -230 118 -308
155 -438 246 -578 407 -127 147 -269 390 -363 622 l-29 73 -852 0 c-469 0
-853 3 -853 7 0 4 28 35 63 69 l62 62 863 1 862 1 0 -26z m-11257 -1834 c43
-22 84 -40 91 -40 6 0 32 20 56 45 41 42 47 45 98 45 63 0 89 -12 102 -46 17
-44 61 -705 50 -740 -17 -52 -92 -70 -164 -40 -27 11 -38 25 -54 68 -11 29
-25 80 -32 113 -53 269 -123 405 -210 405 -37 0 -76 -50 -91 -116 -20 -84 -21
-2131 -1 -2185 31 -87 113 -111 176 -50 50 48 64 101 92 326 8 69 35 101 95
114 58 13 124 7 151 -13 60 -44 47 -243 -27 -393 -93 -189 -283 -296 -495
-280 -238 19 -411 160 -540 441 -78 170 -119 318 -152 540 -19 129 -22 195
-23 456 0 328 9 437 51 629 78 350 244 620 440 717 84 42 145 54 239 49 57 -4
85 -12 148 -45z m9274 19 c31 -10 86 -35 121 -55 36 -19 68 -32 71 -27 4 4 24
29 44 55 44 55 61 62 134 53 45 -5 56 -11 63 -31 12 -30 110 -642 110 -684 0
-39 -23 -50 -109 -50 -112 0 -112 0 -211 205 -49 99 -108 208 -134 242 -74
101 -162 129 -204 66 -22 -35 -22 -124 2 -197 26 -80 139 -307 218 -441 197
-332 363 -648 412 -785 79 -220 103 -529 55 -725 -69 -288 -338 -487 -574
-424 -22 6 -80 29 -128 51 l-88 42 -42 -47 c-36 -40 -49 -48 -89 -53 -26 -4
-58 -4 -71 0 -31 7 -34 19 -87 376 -23 151 -45 300 -50 330 -6 42 -5 60 6 78
13 20 22 22 94 22 126 0 127 0 195 -185 105 -282 211 -416 316 -402 108 14
138 134 76 297 -28 72 -116 233 -226 415 -321 527 -425 743 -478 988 -14 62
-18 125 -17 257 0 161 3 182 28 265 37 123 80 199 151 270 120 119 251 150
412 94z m-11993 -49 c0 -14 -78 -371 -173 -795 -95 -423 -221 -988 -280 -1253
l-108 -484 83 4 c131 5 163 41 214 244 16 65 38 130 48 144 23 31 85 44 158
35 66 -8 70 -16 50 -132 -9 -48 -27 -164 -41 -258 -13 -93 -27 -185 -30 -203
l-6 -32 -572 2 -572 3 3 30 c2 17 16 86 32 155 93 395 142 602 155 655 8 33
55 233 105 445 50 212 100 421 110 465 114 481 190 804 190 809 0 3 -33 6 -74
6 -59 0 -78 -4 -100 -21 -33 -26 -88 -143 -110 -233 -26 -104 -49 -143 -93
-155 -49 -14 -129 -14 -154 -1 -13 8 -19 21 -19 48 0 34 67 511 76 540 3 10
119 12 556 10 l553 -3 -1 -25z m1188 11 c41 -33 32 14 168 -901 230 -1548 220
-1489 257 -1549 9 -14 33 -43 52 -64 35 -37 36 -40 35 -119 0 -67 -3 -83 -19
-94 -15 -11 -94 -14 -417 -14 -459 0 -423 -9 -416 107 4 63 6 66 51 107 66 58
71 77 52 215 -9 64 -19 126 -22 139 -5 22 -6 22 -218 22 l-212 0 -13 -87 c-30
-217 -28 -226 54 -278 34 -21 49 -38 56 -65 13 -45 13 -102 0 -134 l-10 -26
-244 0 c-279 0 -266 -4 -266 87 0 54 26 118 60 148 38 34 59 90 75 197 9 57
31 200 50 318 19 118 52 332 75 475 41 262 49 309 139 887 27 174 47 327 44
340 -3 13 -27 44 -54 70 l-49 46 0 80 c0 60 4 85 16 96 13 14 61 16 373 16
339 0 360 -1 383 -19z m2873 5 c16 -12 20 -29 23 -94 l4 -79 -41 -33 c-26 -21
-45 -46 -51 -69 -6 -21 -10 -211 -10 -463 l0 -428 140 0 141 0 -3 455 -3 456
-40 33 c-39 33 -40 35 -43 107 -2 41 1 86 7 102 l11 27 407 0 c240 0 414 -4
423 -10 11 -7 16 -32 18 -92 4 -92 0 -100 -69 -137 -19 -10 -43 -30 -54 -45
-20 -27 -20 -37 -20 -1089 0 -1188 -6 -1094 72 -1152 21 -16 43 -36 50 -45 19
-23 17 -155 -3 -174 -13 -14 -66 -16 -423 -16 -349 0 -410 2 -421 15 -8 10
-11 41 -9 94 4 80 4 81 49 126 l45 46 3 548 c2 474 1 549 -12 554 -8 3 -70 5
-138 4 l-123 -2 0 -561 0 -561 43 -46 c41 -45 42 -49 42 -112 0 -115 40 -105
-423 -105 -300 0 -406 3 -415 12 -7 7 -12 45 -12 98 0 94 4 101 73 144 59 37
57 -7 57 1109 0 564 -3 1039 -6 1056 -4 19 -27 52 -59 84 -38 38 -55 64 -60
91 -10 53 -1 146 16 157 8 5 190 9 405 9 320 0 394 -3 409 -14z m2719 -2 c12
-11 16 -36 16 -96 0 -77 -1 -81 -35 -121 -44 -51 -44 -66 -5 -273 17 -87 41
-217 55 -289 13 -71 44 -238 69 -370 25 -132 51 -271 58 -309 10 -55 13 -64
19 -45 4 13 36 179 70 368 l61 344 -42 236 c-23 130 -49 250 -58 266 -8 17
-30 47 -48 68 -33 36 -34 39 -34 125 0 55 4 92 12 100 9 9 109 12 390 12 437
0 398 11 398 -115 0 -81 -5 -91 -74 -138 -20 -14 -26 -26 -26 -54 0 -33 49
-319 164 -953 31 -170 45 -227 49 -205 4 17 18 95 32 175 28 159 76 425 130
724 49 271 47 295 -30 347 -22 15 -45 40 -52 56 -16 37 -16 136 -1 151 13 13
464 17 484 4 18 -12 25 -60 18 -124 -6 -54 -11 -64 -54 -107 -26 -26 -52 -63
-58 -82 -6 -19 -47 -232 -91 -474 -254 -1396 -352 -1927 -361 -1949 -15 -41
-39 -46 -209 -46 -157 0 -161 1 -176 23 -8 13 -32 122 -54 243 -142 797 -185
1030 -190 1036 -4 4 -46 -218 -95 -495 -130 -741 -135 -770 -153 -789 -15 -17
-33 -18 -187 -16 l-170 3 -19 32 c-10 18 -27 83 -37 145 -15 96 -208 1145
-285 1553 -14 72 -49 264 -79 427 -31 164 -60 308 -67 320 -6 13 -32 42 -57
64 l-47 42 -3 80 c-6 133 -43 122 388 122 322 0 371 -2 384 -16z m2581 -8 c33
-33 40 -62 95 -436 112 -762 152 -1025 180 -1210 16 -107 45 -303 65 -435 20
-132 40 -258 46 -280 14 -52 49 -113 88 -149 30 -29 31 -33 31 -112 0 -62 -4
-87 -16 -98 -13 -14 -65 -16 -413 -16 -295 0 -400 3 -409 12 -7 7 -12 41 -12
82 l0 70 50 46 c28 26 54 60 59 76 8 29 2 109 -20 237 l-11 67 -213 0 -213 0
-7 -52 c-3 -29 -13 -88 -20 -130 -19 -100 -10 -125 63 -181 45 -34 58 -50 65
-82 10 -48 1 -126 -16 -137 -21 -13 -481 -10 -495 4 -18 18 -15 123 4 161 10
18 32 50 50 71 18 21 38 53 43 70 6 17 38 204 71 416 33 212 74 468 90 570
109 683 170 1086 170 1126 0 42 -4 50 -50 94 l-50 48 0 77 c0 126 -37 115 386
115 l365 0 24 -24z m1493 15 c27 -17 43 -153 22 -192 -6 -10 -33 -30 -60 -44
-93 -47 -85 70 -85 -1200 l0 -1120 71 1 c120 1 140 25 210 263 25 85 51 153
63 165 40 39 203 34 222 -7 11 -25 -60 -532 -81 -579 -7 -14 -22 -29 -34 -32
-11 -3 -283 -6 -604 -6 l-583 0 -24 25 c-21 20 -25 34 -25 85 0 65 5 72 70
113 19 12 44 40 55 62 20 39 20 63 23 1078 2 721 -1 1050 -8 1078 -9 32 -21
46 -64 74 -30 19 -56 41 -60 50 -11 30 -7 170 6 183 14 14 864 17 886 3z
m2690 -7 c19 -13 22 -24 22 -93 l0 -77 -44 -42 c-35 -33 -44 -50 -50 -88 -3
-26 -6 -231 -6 -455 l0 -409 140 0 140 0 0 452 0 453 -39 35 c-46 42 -59 98
-45 183 l9 52 415 3 c381 2 416 1 428 -15 13 -18 17 -160 4 -179 -4 -6 -30
-25 -58 -43 -28 -17 -56 -42 -62 -56 -9 -19 -12 -297 -12 -1081 0 -1179 -5
-1097 71 -1150 22 -15 44 -35 50 -45 13 -26 11 -163 -3 -177 -9 -9 -117 -12
-425 -12 l-413 0 -10 26 c-15 37 -12 131 4 162 8 15 28 39 45 54 17 15 33 38
36 50 3 13 4 264 3 558 l-3 535 -125 1 c-68 1 -130 -1 -137 -3 -17 -7 -19
-1036 -3 -1095 6 -20 26 -56 45 -78 22 -27 36 -54 36 -73 3 -58 -3 -112 -13
-124 -8 -10 -103 -13 -414 -13 -466 0 -424 -12 -424 115 0 83 -2 79 90 155
l35 28 3 1049 c2 701 0 1060 -7 1084 -7 21 -26 48 -50 67 -51 41 -75 103 -69
176 8 92 -22 86 422 86 338 0 395 -2 414 -16z m-11779 -3309 c57 -28 98 -82
107 -137 6 -33 4 -35 -26 -42 -18 -3 -48 -6 -66 -6 -29 0 -36 5 -48 34 -22 54
-54 69 -135 64 -80 -4 -111 -24 -111 -69 0 -39 29 -56 165 -94 131 -37 166
-55 209 -108 26 -32 31 -48 34 -106 3 -54 0 -76 -17 -108 -24 -48 -81 -95
-134 -112 -46 -16 -199 -15 -246 0 -83 27 -144 98 -165 192 -7 32 -5 33 77 40
47 5 57 3 57 -10 0 -63 74 -123 151 -123 59 0 127 35 136 68 17 64 -7 96 -86
118 -147 40 -196 57 -226 77 -74 49 -108 148 -75 223 22 51 85 105 142 121 69
20 197 9 257 -22z m3589 8 c71 -33 125 -92 146 -159 6 -19 0 -22 -51 -34 -32
-7 -63 -15 -69 -17 -7 -2 -16 8 -22 24 -16 42 -35 61 -75 78 -83 35 -173 4
-217 -75 -22 -40 -25 -56 -25 -155 0 -97 3 -116 25 -160 46 -91 152 -120 234
-64 33 23 66 74 66 104 0 8 6 15 13 15 18 0 110 -31 121 -40 8 -8 -32 -102
-56 -130 -24 -29 -83 -67 -121 -80 -21 -6 -72 -11 -115 -11 -127 1 -221 62
-279 178 -26 54 -28 66 -28 183 1 134 9 165 62 242 32 48 115 103 173 116 61
15 170 7 218 -15z m2387 3 c60 -25 94 -55 125 -109 16 -29 30 -57 30 -63 0
-10 -90 -34 -126 -34 -7 0 -20 15 -29 33 -9 20 -33 43 -56 57 -35 19 -51 22
-105 17 -130 -10 -187 -83 -188 -242 -1 -144 46 -218 156 -245 56 -14 94 -9
166 25 l52 24 0 51 0 50 -80 0 -80 0 0 58 0 57 150 1 151 1 -3 -146 -3 -145
-33 -23 c-44 -29 -135 -63 -192 -72 -72 -10 -191 4 -241 29 -118 59 -189 183
-189 332 0 87 18 151 60 216 70 109 170 156 316 148 45 -3 98 -12 119 -20z
m2083 12 c84 -21 156 -79 186 -152 9 -21 16 -40 16 -42 0 -1 -26 -8 -57 -14
-32 -7 -63 -15 -70 -17 -7 -3 -13 2 -13 10 0 8 -17 34 -39 58 -39 44 -39 44
-108 44 -60 0 -74 -4 -105 -27 -58 -45 -73 -86 -73 -213 0 -97 3 -116 25 -160
49 -97 166 -123 245 -53 19 16 40 47 46 69 7 21 17 39 23 39 13 0 116 -37 124
-44 8 -9 -47 -112 -74 -140 -81 -80 -237 -103 -347 -52 -71 34 -138 106 -166
179 -31 84 -30 240 2 318 31 75 69 123 127 158 76 47 170 61 258 39z m2656 -3
c66 -17 120 -56 158 -112 48 -70 46 -78 -19 -93 -32 -7 -63 -14 -69 -17 -6 -2
-17 9 -23 25 -22 52 -65 84 -119 90 -131 12 -202 -74 -202 -241 1 -173 54
-249 175 -251 69 0 109 25 141 91 13 29 26 53 27 53 13 0 114 -34 121 -40 11
-11 -24 -84 -64 -132 -17 -20 -55 -49 -84 -63 -77 -37 -191 -38 -271 -1 -63
28 -129 95 -157 158 -40 89 -40 267 -1 353 69 153 221 223 387 180z m-11984
-350 l0 -355 -70 0 -70 0 0 355 0 355 70 0 70 0 0 -355z m375 198 c54 -87 118
-193 143 -235 26 -43 50 -78 54 -78 4 0 8 106 8 235 l0 236 63 -3 62 -3 3
-352 2 -353 -73 0 -73 0 -84 138 c-46 75 -112 179 -145 231 l-60 94 -3 -231
-2 -232 -65 0 -65 0 0 348 c0 192 3 352 7 355 3 4 34 7 69 7 l62 0 97 -157z
m1295 -84 c0 -270 6 -311 53 -339 69 -42 171 -31 211 23 20 27 21 43 24 293
l3 265 67 -3 67 -3 3 -220 c4 -346 -13 -407 -127 -469 -49 -26 -64 -29 -150
-29 -139 -1 -217 38 -262 130 -22 46 -23 59 -27 321 l-4 272 71 0 71 0 0 -241z
m1045 221 c40 -15 84 -58 101 -97 21 -48 18 -142 -5 -179 -25 -41 -80 -82
-120 -90 -44 -9 -46 -18 -8 -44 36 -24 106 -116 151 -195 16 -27 36 -58 44
-67 14 -17 10 -18 -70 -18 l-85 0 -76 113 c-42 61 -82 119 -89 128 -25 30 -63
48 -113 50 l-50 3 -3 -147 -3 -147 -68 0 -69 0 -2 356 -1 357 218 -6 c128 -3
230 -10 248 -17z m681 -145 c36 -88 78 -194 94 -235 16 -41 49 -126 74 -189
25 -63 46 -116 46 -118 0 -1 -33 -3 -74 -3 l-74 0 -28 80 -29 80 -146 0 -147
0 -28 -80 -29 -80 -73 0 c-67 0 -73 2 -67 18 4 9 19 51 35 92 15 41 57 149 92
240 36 91 82 209 103 263 l37 98 75 -3 74 -3 65 -160z m440 157 c5 -4 28 -38
51 -77 22 -38 77 -131 123 -205 46 -74 91 -148 101 -165 18 -29 19 -27 21 210
l3 240 63 3 62 3 0 -356 0 -355 -69 0 -69 0 -44 69 c-23 38 -88 143 -143 232
l-100 163 -3 -232 -2 -232 -65 0 -65 0 0 355 0 355 63 0 c34 0 67 -4 73 -8z
m1834 -52 l0 -60 -195 0 -195 0 0 -80 0 -80 180 0 180 0 0 -60 0 -60 -180 0
-180 0 0 -100 0 -100 200 0 200 0 0 -55 0 -55 -270 0 -270 0 0 348 c0 192 3
352 7 355 3 4 123 7 265 7 l258 0 0 -60z m845 -216 c61 -152 124 -312 142
-355 l31 -80 -76 3 -77 3 -29 78 -29 77 -147 0 -146 0 -23 -67 c-31 -97 -28
-94 -108 -91 l-70 3 74 190 c41 105 102 263 136 352 l62 163 75 0 75 0 110
-276z m1563 214 l3 -58 -196 0 -195 0 0 -80 0 -80 180 0 180 0 0 -60 0 -60
-180 0 -180 0 0 -100 0 -100 200 0 200 0 0 -55 0 -55 -270 0 -270 0 0 355 0
355 263 -2 262 -3 3 -57z m337 -37 c33 -55 98 -163 145 -240 l85 -140 3 240 2
239 65 0 65 0 0 -355 0 -356 -71 3 -72 3 -76 122 c-42 67 -105 169 -141 228
l-65 106 -3 -231 -2 -230 -65 0 -65 0 0 355 0 355 68 0 67 0 60 -99z m1419
-43 c45 -75 86 -136 91 -134 6 1 45 64 88 139 l79 137 79 0 79 0 -26 -42 c-69
-110 -151 -239 -191 -300 l-43 -67 0 -150 0 -151 -70 0 -70 0 0 148 0 149 -88
139 c-48 76 -107 170 -130 207 l-43 68 82 -3 82 -3 81 -137z m886 -213 l0
-355 -70 0 -70 0 0 348 c0 192 3 352 7 355 3 4 35 7 70 7 l63 0 0 -355z m334
268 c28 -45 94 -151 146 -236 l95 -155 3 239 2 239 65 0 65 0 0 -355 0 -356
-72 3 -71 3 -69 110 c-37 61 -78 127 -90 147 -13 21 -47 75 -75 120 l-53 83 0
-232 0 -233 -65 0 -65 0 0 355 0 356 66 -3 67 -3 51 -82z m1386 -558 l0 -65
-65 0 -65 0 0 65 0 65 65 0 65 0 0 -65z m-6142 -367 c123 -46 224 -157 257
-284 69 -267 -129 -524 -404 -524 -118 0 -198 31 -284 110 -115 105 -161 262
-122 414 62 237 322 371 553 284z m-588 -388 l0 -50 -2495 0 -2495 0 0 50 0
50 2495 0 2495 0 0 -50z m5630 0 l0 -50 -2375 0 -2375 0 0 50 0 50 2375 0
2375 0 0 -50z"/>
<path d="M14755 19804 c-244 -44 -580 -201 -832 -388 -291 -217 -601 -591
-885 -1066 -340 -571 -694 -1376 -823 -1875 -29 -114 -65 -319 -65 -375 0 -16
25 -6 173 65 404 196 718 301 1005 337 126 15 396 4 504 -21 180 -42 298 -98
645 -308 154 -94 255 -139 360 -159 41 -8 79 -14 84 -14 11 0 11 653 2 2483
l-6 1337 -41 -1 c-23 0 -77 -7 -121 -15z"/>
<path d="M15125 17909 c-4 -1051 -5 -1913 -2 -1915 2 -3 38 3 78 12 96 21 230
84 388 183 406 253 589 315 931 314 372 0 757 -112 1279 -372 57 -28 106 -50
108 -47 8 7 -27 227 -53 336 -85 351 -339 991 -613 1540 -133 265 -185 356
-317 556 -253 382 -484 656 -725 856 -88 74 -275 196 -374 245 -171 86 -391
157 -562 183 -38 5 -82 12 -99 15 l-31 5 -8 -1911z"/>
<path d="M13530 19633 c-133 -10 -382 -64 -555 -121 -183 -61 -526 -208 -685
-295 -217 -118 -293 -161 -415 -235 -399 -242 -815 -552 -1099 -820 -235 -223
-549 -545 -630 -647 -88 -112 -292 -392 -312 -429 -6 -12 -52 -87 -102 -167
-49 -80 -104 -173 -121 -207 -30 -60 -108 -319 -98 -328 2 -3 58 9 123 26 238
62 342 74 629 74 331 1 422 -15 703 -120 192 -71 321 -145 422 -240 125 -117
180 -144 368 -183 l93 -19 10 27 c11 28 44 129 109 341 360 1163 523 1547 950
2235 198 320 292 446 475 635 165 171 234 253 310 371 36 55 65 102 65 104 0
5 -165 4 -240 -2z"/>
<path d="M16341 19549 c58 -87 119 -162 497 -614 191 -228 418 -577 560 -860
125 -251 369 -827 432 -1020 128 -396 371 -1129 374 -1132 9 -9 238 51 292 76
35 16 86 53 120 86 111 107 227 173 486 276 247 99 392 124 703 123 236 -1
401 -21 594 -70 74 -19 136 -32 139 -30 6 6 -14 90 -45 191 -136 443 -705
1157 -1403 1759 -442 381 -1206 852 -1743 1073 -367 150 -633 217 -926 230
l-144 6 64 -94z"/>
<path d="M7670 12499 c-140 -4 -269 -11 -286 -14 l-32 -5 -1 -83 c-4 -223 -68
-409 -219 -639 -242 -367 -591 -548 -1167 -608 -55 -6 -110 -13 -122 -15 l-23
-5 1 -1463 c1 -804 5 -1793 8 -2197 l6 -735 175 -16 c228 -21 267 -30 440 -96
282 -108 402 -187 582 -382 190 -205 295 -463 324 -793 l6 -68 959 0 c917 0
959 1 959 18 0 43 12 42 -840 43 -448 1 -858 4 -910 8 l-95 6 -3 35 c-17 226
-87 439 -200 608 -217 326 -558 555 -968 651 -71 16 -313 51 -357 51 -7 0 1
4269 8 4278 1 1 56 7 121 13 233 19 321 42 549 142 316 139 495 298 681 604
78 128 123 263 153 452 12 73 24 138 27 143 4 6 335 9 905 7 831 -3 901 -2
916 14 9 9 14 19 11 22 -3 4 -43 11 -89 16 -111 13 -1196 19 -1519 8z"/>
<path d="M20788 12494 c-19 -6 -31 -31 -19 -38 5 -3 53 -11 107 -18 110 -14
1421 -17 1615 -4 l105 7 23 -118 c38 -194 78 -320 141 -448 69 -139 117 -206
238 -329 273 -278 580 -408 1085 -461 l57 -6 0 -2139 0 -2139 -32 -5 c-18 -3
-73 -10 -123 -16 -389 -48 -750 -214 -990 -456 -210 -211 -341 -482 -378 -780
l-13 -99 -904 -2 c-498 -2 -910 -3 -916 -3 -18 0 -36 -48 -21 -57 7 -4 440 -8
964 -8 l952 0 6 60 c22 227 49 338 114 479 101 220 248 387 479 546 228 157
402 215 782 258 l155 18 3 2197 2 2197 -22 5 c-13 2 -99 14 -193 26 -508 62
-840 237 -1077 566 -148 206 -222 410 -243 676 l-7 87 -497 0 c-273 0 -694 2
-936 5 -242 2 -447 2 -457 -1z"/>
<path d="M8019 12143 l-306 -3 -7 -43 c-20 -125 -95 -308 -178 -431 -61 -88
-277 -345 -339 -400 -216 -195 -597 -375 -896 -426 l-73 -12 0 -1894 0 -1894
33 0 c18 0 69 -9 112 -21 285 -74 544 -197 760 -358 131 -98 309 -289 397
-427 65 -102 141 -278 168 -391 6 -29 21 -64 32 -78 l19 -25 832 0 831 0 33
36 c18 20 33 39 33 42 0 3 -367 3 -816 0 -758 -6 -817 -5 -833 11 -9 9 -27 59
-40 111 -26 105 -66 192 -146 314 -196 301 -479 551 -793 703 -102 49 -451
173 -487 173 -13 0 -15 213 -15 1784 0 981 3 1792 6 1801 9 23 70 51 148 70
97 22 250 84 411 166 156 80 195 104 310 200 285 236 454 477 585 837 l22 62
847 0 846 0 -53 50 -52 50 -543 -2 c-298 -2 -680 -4 -848 -5z"/>
<path d="M20586 12099 l-49 -49 840 0 839 0 34 -77 c153 -354 257 -521 430
-694 123 -122 240 -199 525 -343 216 -110 267 -131 372 -159 l123 -32 0 -1486
c0 -817 -3 -1628 -7 -1803 l-6 -317 -36 -15 c-20 -9 -115 -42 -211 -75 -375
-127 -602 -277 -843 -558 -212 -246 -309 -422 -352 -632 -2 -15 -12 -30 -21
-33 -9 -4 -387 -6 -840 -6 -453 0 -824 -3 -824 -7 0 -4 16 -23 35 -43 l34 -35
847 5 847 5 8 25 c3 14 17 61 29 105 45 163 147 332 326 541 64 75 148 163
188 196 42 35 168 115 306 195 259 149 394 204 556 226 l84 11 -2 1886 -3
1885 -50 17 c-27 9 -129 42 -225 73 -199 64 -403 159 -550 257 -125 83 -334
290 -418 414 -117 174 -218 397 -237 527 l-7 47 -847 -1 -846 0 -49 -50z"/>
<path d="M9091 9652 c-1 -16 -179 -1248 -186 -1284 l-4 -28 189 0 c105 0 190
4 190 8 0 5 -11 87 -24 183 -14 96 -55 386 -91 644 -61 438 -72 511 -74 477z"/>
<path d="M17261 9659 c0 -3 -42 -287 -91 -630 -50 -343 -93 -639 -96 -656 l-6
-33 192 0 192 0 -6 33 c-3 17 -19 131 -36 252 -67 477 -148 1040 -149 1034z"/>
<path d="M11262 6799 l3 -91 120 1 c131 2 160 12 171 56 3 14 3 41 0 60 -10
54 -42 65 -181 65 l-116 0 3 -91z"/>
<path d="M12076 6714 c-26 -70 -44 -129 -41 -132 7 -7 177 -11 188 -5 4 3 4
10 -1 16 -5 7 -28 65 -52 130 -23 64 -43 117 -45 117 -2 0 -24 -57 -49 -126z"/>
<path d="M15150 6717 c-25 -67 -45 -126 -45 -130 0 -5 43 -9 95 -9 73 1 95 4
93 14 -3 23 -88 248 -93 248 -3 0 -25 -55 -50 -123z"/>
</g>
</svg>
