<?xml version="1.0" standalone="no"?>
<!DOCTYPE svg PUBLIC "-//W3C//DTD SVG 20010904//EN"
 "http://www.w3.org/TR/2001/REC-SVG-20010904/DTD/svg10.dtd">
<svg version="1.0" xmlns="http://www.w3.org/2000/svg"
 width="3004.000000pt" height="3004.000000pt" viewBox="0 0 3004.000000 3004.000000"
 preserveAspectRatio="xMidYMid meet">

<g transform="translate(0.000000,3004.000000) scale(0.100000,-0.100000)"
fill="#000000" stroke="none">
<path d="M10 15020 l0 -15010 15010 0 15010 0 0 15010 0 15010 -15010 0
-15010 0 0 -15010z m15380 11080 c522 -23 1013 -80 1522 -177 126 -23 139 -28
152 -52 8 -14 27 -51 43 -81 101 -190 134 -389 98 -596 -22 -126 -105 -369
-192 -564 -12 -25 -35 -80 -54 -122 -37 -88 -35 -87 -136 -63 -264 62 -816
142 -1223 177 -339 29 -1086 32 -1415 5 -374 -31 -675 -71 -1040 -137 -148
-27 -192 -36 -360 -75 -337 -78 -594 -151 -900 -255 -335 -114 -353 -121 -545
-200 -719 -295 -1438 -700 -2040 -1149 -41 -31 -81 -61 -90 -68 -8 -7 -52 -40
-96 -75 -100 -78 -277 -221 -324 -264 -19 -17 -78 -68 -130 -114 -154 -134
-422 -393 -573 -555 -77 -82 -164 -175 -192 -205 -118 -126 -456 -544 -591
-730 -238 -328 -500 -743 -686 -1090 -94 -175 -288 -571 -288 -589 0 -3 -7
-19 -16 -36 -16 -31 -69 -154 -131 -305 -74 -182 -216 -578 -248 -695 -13 -46
-54 -190 -90 -310 -29 -99 -73 -271 -85 -330 -6 -33 -22 -107 -35 -165 -39
-170 -55 -252 -61 -304 -3 -27 -9 -56 -13 -65 -5 -9 -12 -52 -16 -95 -4 -43
-10 -74 -14 -68 -3 6 -7 -8 -7 -31 0 -23 -6 -73 -12 -112 -13 -76 -15 -97 -27
-228 -4 -49 -11 -84 -14 -79 -3 6 -7 -18 -8 -51 0 -34 -8 -162 -17 -284 -25
-349 -30 -711 -15 -1033 7 -157 13 -317 13 -357 1 -39 4 -66 9 -60 4 7 7 -13
7 -43 -1 -30 6 -111 14 -179 8 -69 13 -136 9 -149 -4 -17 -2 -23 6 -18 7 5 11
-4 11 -26 0 -33 40 -306 66 -448 7 -41 18 -102 24 -135 6 -33 17 -91 26 -130
9 -38 18 -80 20 -93 l4 -22 58 29 c31 15 226 85 432 154 708 237 895 287 1395
372 646 110 908 181 1063 287 23 16 42 35 42 42 0 17 -74 79 -173 146 -345
231 -1479 664 -2264 863 -86 22 -123 36 -123 46 0 23 87 177 171 301 271 403
818 941 1459 1436 609 471 1245 883 1909 1239 706 378 1666 747 2614 1005 250
69 346 106 415 160 104 83 144 171 328 710 20 58 61 177 91 265 30 88 140 390
245 670 190 507 242 651 364 1005 35 102 68 186 73 188 12 4 164 -48 316 -108
115 -46 251 -107 490 -220 368 -173 574 -232 911 -259 151 -13 587 -19 571 -9
-6 4 21 6 61 5 39 -1 72 1 72 5 0 5 26 8 58 8 31 0 165 11 297 25 132 14 285
30 340 35 55 6 244 26 420 45 997 108 1543 136 1950 101 105 -9 199 -16 208
-16 26 0 21 -16 -33 -97 -27 -41 -50 -77 -50 -79 0 -16 -63 -90 -196 -230
-204 -214 -369 -405 -465 -539 -113 -158 -188 -308 -189 -376 0 -26 2 -26 108
-40 128 -16 408 -16 547 0 501 57 1032 223 1570 493 163 81 211 108 370 207
129 79 476 329 588 423 l27 23 -41 45 c-63 69 -325 334 -430 435 -242 233
-569 510 -839 711 -205 152 -251 185 -410 291 -916 611 -1824 1016 -2880 1288
-143 37 -160 44 -130 49 19 4 150 25 290 47 1159 183 1680 232 2475 233 l420
1 65 -38 c373 -217 731 -456 1071 -714 155 -117 386 -302 455 -362 22 -20 53
-47 70 -61 194 -164 411 -366 654 -612 l126 -126 22 71 c45 146 92 417 92 531
0 29 22 85 86 215 100 204 84 204 157 -4 142 -411 202 -775 195 -1198 l-3
-237 126 -158 c169 -212 437 -585 561 -780 113 -178 134 -212 228 -367 151
-250 242 -417 397 -728 133 -265 171 -346 240 -512 14 -33 33 -78 43 -100 105
-232 320 -834 416 -1170 350 -1212 491 -2502 409 -3740 -21 -314 -39 -485 -95
-895 -39 -287 -186 -1013 -219 -1085 -5 -11 -16 -47 -24 -81 -8 -33 -23 -86
-33 -117 -18 -54 -21 -57 -51 -57 -19 0 -33 -5 -34 -12 0 -10 -2 -10 -6 -1 -3
9 -14 7 -41 -7 -24 -13 -38 -16 -43 -9 -7 12 -79 -9 -79 -23 0 -4 -18 -8 -40
-8 -22 0 -40 -4 -40 -10 0 -5 -19 -11 -42 -12 l-43 -1 45 -6 c40 -6 33 -8 -65
-19 -60 -7 -125 -14 -143 -15 -18 -2 -37 -9 -41 -16 -5 -8 -14 -10 -20 -7 -6
4 -11 2 -11 -3 0 -7 -30 -11 -80 -11 -73 0 -80 -2 -80 -20 0 -17 -7 -20 -52
-20 -29 -1 -64 -7 -77 -14 -14 -8 -41 -11 -67 -8 -29 3 -44 1 -44 -7 0 -6 6
-11 13 -11 8 0 6 -4 -3 -10 -9 -5 -52 -10 -95 -11 -44 -1 -96 -9 -115 -17 -19
-9 -52 -16 -74 -18 -21 -1 -41 -6 -45 -12 -4 -6 -12 2 -20 19 -11 26 -10 40
17 127 40 131 43 147 33 173 -7 20 -10 13 -16 -36 -8 -54 -9 -57 -14 -27 l-6
34 -28 -22 c-15 -12 -25 -26 -22 -31 4 -5 -14 -9 -40 -9 -42 0 -47 -3 -60 -32
-11 -25 -15 -28 -16 -13 -1 17 -2 17 -6 3 -2 -10 -8 -18 -13 -18 -5 0 3 35 17
78 29 90 35 109 103 342 29 96 58 200 65 230 14 58 39 161 55 220 32 123 54
218 72 310 41 217 50 267 62 340 7 44 15 69 19 60 4 -8 4 3 1 26 -3 24 1 58
10 84 8 24 13 47 10 51 -2 4 3 54 12 111 8 57 16 112 16 123 0 11 7 74 14 140
8 66 16 165 19 220 3 55 8 136 12 180 9 103 9 112 9 555 1 548 0 599 -9 593
-4 -2 -7 24 -7 59 0 154 -3 219 -11 206 -5 -8 -9 13 -10 52 -1 76 -4 112 -24
240 -8 52 -17 122 -20 155 -6 65 -20 153 -35 225 -6 25 -12 63 -15 85 -2 22
-10 69 -18 105 -8 36 -13 68 -11 71 2 4 -3 26 -11 50 -8 24 -19 73 -25 109 -6
36 -12 72 -14 80 -1 8 -5 22 -9 30 -3 8 -11 42 -18 75 -13 70 -46 202 -84 334
-14 51 -24 100 -21 108 3 8 2 12 -3 9 -4 -3 -18 29 -30 72 -13 42 -34 113 -48
157 -14 44 -26 85 -28 90 -1 6 -5 17 -8 25 -3 8 -15 44 -27 80 -12 36 -26 74
-30 85 -4 11 -13 34 -18 50 -68 195 -177 468 -243 612 -10 24 -19 45 -19 47 0
18 -232 486 -337 678 l-75 138 21 172 c12 95 23 193 26 218 l5 45 -57 -60
c-32 -33 -74 -80 -94 -104 l-36 -43 -68 108 c-90 144 -176 274 -180 274 -2 0
-46 -60 -99 -132 -137 -190 -181 -244 -313 -397 -233 -268 -580 -597 -878
-834 -33 -26 -67 -53 -75 -60 -172 -140 -632 -461 -880 -614 -36 -22 -87 -54
-115 -71 -97 -60 -442 -257 -595 -340 -615 -333 -1419 -688 -2135 -943 -77
-27 -176 -63 -220 -79 -259 -93 -775 -249 -1090 -330 -442 -114 -771 -179
-1335 -265 -324 -50 -891 -117 -1560 -185 -107 -11 -267 -27 -355 -35 -88 -9
-185 -20 -215 -25 -30 -5 -136 -19 -235 -31 -173 -21 -211 -31 -199 -50 11
-18 -42 -472 -66 -569 -5 -19 -11 -53 -14 -75 -6 -50 -13 -82 -39 -170 -11
-38 -19 -80 -19 -93 1 -13 -2 -20 -8 -17 -6 3 -11 23 -11 43 -2 31 -3 33 -6 9
-3 -16 0 -41 5 -56 10 -29 7 -44 -41 -206 -23 -78 -44 -102 -40 -47 l2 27 -8
-25 c-4 -14 -4 -30 2 -37 10 -14 4 -49 -18 -98 -7 -16 -28 -70 -46 -120 -107
-287 -349 -692 -542 -905 -105 -117 -214 -227 -257 -260 -24 -19 -56 -46 -71
-60 -25 -24 -58 -50 -161 -125 -30 -23 -53 -33 -65 -29 -13 4 -14 3 -5 -3 9
-7 -4 -21 -52 -51 -67 -44 -82 -50 -70 -29 4 6 4 9 0 5 -4 -3 -7 -10 -6 -14 6
-25 -342 -189 -525 -247 -145 -46 -443 -80 -810 -92 -425 -14 -1272 31 -2300
121 -607 53 -1188 102 -1302 110 l-102 6 15 -48 c9 -27 22 -76 29 -109 8 -33
28 -112 45 -175 29 -109 48 -173 104 -350 77 -240 79 -250 68 -273 -8 -17 -11
-18 -11 -5 -1 21 -13 28 -53 35 -19 3 -34 0 -39 -9 -6 -9 -9 -5 -9 12 0 14 -9
32 -20 40 -11 8 -20 20 -20 27 0 17 -28 16 -46 -1 -12 -13 -12 -21 1 -63 9
-26 20 -57 25 -68 15 -35 40 -118 40 -133 0 -12 -14 -13 -82 -8 -79 7 -457 44
-658 66 -52 5 -165 17 -250 25 -85 9 -156 18 -158 20 -6 6 -79 228 -93 283 -7
28 -16 52 -21 52 -4 0 -8 12 -8 28 -1 15 -7 38 -16 52 -14 23 -14 23 -9 3 4
-13 2 -23 -3 -23 -6 0 -14 19 -18 43 -5 31 -9 37 -14 23 -4 -13 -18 -20 -42
-23 -34 -3 -37 -1 -40 24 -3 24 -8 28 -40 31 -41 3 -33 -16 -83 197 -10 39
-21 79 -25 90 -10 24 -77 367 -96 485 -7 47 -20 117 -28 155 -8 39 -18 109
-22 158 -4 48 -10 87 -14 87 -5 0 -11 33 -15 73 -4 39 -13 122 -21 182 -16
131 -38 380 -36 415 1 14 -3 43 -8 65 -5 22 -13 105 -17 185 -11 214 -7 1136
5 1275 6 66 14 154 16 195 3 41 17 179 31 305 15 127 30 266 35 310 8 75 35
241 45 275 3 8 12 67 20 130 18 133 35 201 49 193 5 -4 7 3 3 16 -6 24 38 275
53 303 6 10 10 28 10 40 0 13 14 77 30 143 16 66 30 130 30 142 0 12 4 24 9
27 5 3 12 23 15 43 4 21 16 67 26 103 11 36 31 106 46 155 29 102 62 210 73
240 4 11 23 67 41 125 18 58 36 110 39 115 3 6 11 28 17 50 69 244 342 885
565 1328 321 636 757 1314 1189 1848 25 31 63 78 85 105 331 410 835 930 1271
1310 186 162 504 415 709 564 64 47 122 90 129 95 28 26 495 333 621 409 585
353 1169 641 1755 865 200 76 376 138 520 184 212 67 628 185 755 213 61 14
174 41 251 59 150 36 631 123 824 149 397 54 624 77 955 95 206 12 847 12
1095 1z m5215 -12159 c-6 -5 -100 -75 -210 -157 -361 -267 -721 -560 -1109
-903 -300 -264 -322 -284 -486 -438 -30 -28 -66 -61 -80 -73 -25 -21 -104 -95
-390 -360 -232 -216 -283 -260 -300 -260 -33 0 -352 111 -473 165 -415 184
-917 504 -1185 757 -59 56 -89 112 -71 134 6 8 17 14 24 14 7 0 18 7 26 16 8
10 21 13 38 9 19 -4 22 -3 11 4 -12 8 -11 11 5 17 11 4 43 17 72 30 28 12 54
20 57 16 3 -3 6 0 6 6 0 7 4 12 10 12 5 0 44 16 86 35 41 19 78 35 81 35 2 0
66 23 141 51 76 28 263 94 417 146 479 162 768 271 930 350 151 73 280 120
410 148 462 102 806 149 1520 210 105 9 249 22 320 29 72 8 137 14 145 15 8 0
10 -2 5 -8z m-16169 -1399 c1 -15 5 -38 8 -52 5 -21 4 -20 -8 5 -9 17 -15 43
-16 59 0 36 14 25 16 -12z m39 -22 c7 -22 6 -23 -9 -8 -9 9 -16 27 -16 40 1
18 3 20 9 8 5 -8 12 -26 16 -40z m92 -2 c-3 -8 -6 -5 -6 6 -1 11 2 17 5 13 3
-3 4 -12 1 -19z m39 -54 c-4 -14 -9 -24 -12 -21 -3 2 -2 17 2 31 3 15 9 25 11
22 3 -3 2 -17 -1 -32z m20651 -146 c-3 -8 -6 -5 -6 6 -1 11 2 17 5 13 3 -3 4
-12 1 -19z m-19420 -90 c-3 -8 -6 -5 -6 6 -1 11 2 17 5 13 3 -3 4 -12 1 -19z
m17891 -43 c-3 -3 -9 2 -12 12 -6 14 -5 15 5 6 7 -7 10 -15 7 -18z m-21 -37
c-3 -8 -6 -5 -6 6 -1 11 2 17 5 13 3 -3 4 -12 1 -19z m-17666 -15 c-8 -15 -10
-15 -11 -2 0 17 10 32 18 25 2 -3 -1 -13 -7 -23z m16 -35 c-3 -8 -6 -5 -6 6
-1 11 2 17 5 13 3 -3 4 -12 1 -19z m17836 -43 c-3 -9 -8 -14 -10 -11 -3 3 -2
9 2 15 9 16 15 13 8 -4z m-8246 -1244 l123 -164 0 167 0 166 178 0 177 0 -3
-850 -2 -850 -175 0 -175 0 0 429 0 428 -111 149 c-61 82 -118 156 -126 164
-13 13 -14 13 -13 0 1 -8 2 -275 1 -592 l-1 -577 -170 -3 -170 -3 0 851 c0
468 2 853 4 855 2 2 80 2 173 -1 l168 -5 122 -164z m-3307 25 c0 -80 -3 -147
-7 -149 -5 -2 -60 2 -123 9 -63 7 -123 13 -132 14 -17 0 -18 -41 -18 -715 l0
-715 -177 0 -178 0 3 712 c1 391 -1 715 -5 719 -7 6 -119 -5 -255 -26 l-38 -5
0 150 0 150 465 0 465 0 0 -144z m440 -306 l0 -450 145 0 145 0 0 450 0 450
175 0 175 0 0 -850 0 -850 -175 0 -175 0 0 260 0 260 -47 0 c-27 0 -92 3 -145
7 l-98 6 0 -266 0 -267 -175 0 -175 0 0 248 0 249 -61 139 c-33 76 -63 145
-66 152 -4 9 12 12 61 12 l66 0 0 450 0 450 175 0 175 0 0 -450z m1708 310 c1
-74 -1 -140 -5 -146 -6 -9 -60 -8 -208 2 -110 7 -228 13 -262 14 l-63 0 0
-315 0 -315 268 -2 267 -3 3 -139 c2 -76 0 -142 -5 -147 -4 -4 -107 -1 -228 6
-121 8 -239 15 -263 15 l-43 0 3 -132 3 -133 40 2 c22 1 135 8 251 14 117 7
219 9 228 6 14 -6 16 -24 14 -144 l-3 -138 -442 -3 -443 -2 0 253 0 254 -64
144 -65 144 65 3 64 3 0 450 0 449 443 -2 442 -3 3 -135z m2692 -10 l0 -150
-52 5 c-78 8 -376 25 -430 25 l-48 0 0 -315 0 -315 265 0 265 0 0 -151 0 -150
-67 6 c-87 7 -388 25 -430 25 l-33 0 0 -133 0 -134 53 4 c309 19 389 23 430
23 l47 0 0 -145 0 -145 -424 0 c-233 0 -431 -3 -440 -6 -14 -6 -16 20 -16 248
l0 255 -65 146 c-36 80 -65 149 -65 152 0 3 29 5 65 5 l65 0 0 450 0 450 440
0 440 0 0 -150z m502 -498 l3 -648 108 118 107 117 -2 423 -3 423 -47 104
c-27 57 -48 105 -48 107 0 2 103 4 230 4 l229 0 1 -530 0 -531 108 -120 107
-119 3 650 2 650 175 0 175 0 0 -688 0 -687 -180 -180 -180 -180 -105 105
c-58 58 -105 100 -106 95 -1 -6 -2 -37 -3 -70 l-1 -60 -155 -32 c-221 -45
-200 -53 -200 69 l0 103 -105 -105 -105 -105 -180 180 -180 180 0 687 0 688
175 0 175 0 2 -648z m-8721 -1727 c255 -54 439 -270 484 -570 22 -145 22
-1921 0 -2066 -50 -337 -264 -539 -570 -539 -106 0 -335 25 -410 45 -251 66
-454 292 -503 556 -16 86 -17 178 -12 1084 l5 990 24 70 c13 39 28 72 33 73 4
2 8 9 8 16 0 30 133 206 156 206 7 0 14 7 18 15 3 8 12 15 21 15 8 0 15 4 15
9 0 13 124 72 195 92 82 24 430 26 536 4z m1317 -1391 l2 -1356 31 6 c17 3 69
6 115 6 l84 0 0 350 0 350 38 0 c20 0 98 4 172 10 74 5 157 10 185 12 l50 2 2
-44 c1 -25 7 -139 12 -255 6 -115 18 -356 26 -535 9 -179 19 -349 24 -378 4
-29 4 -55 0 -58 -7 -4 -549 28 -1024 61 -115 8 -225 15 -242 15 l-33 0 0 1588
0 1587 278 -2 277 -2 3 -1357z m6372 1070 l0 -297 -77 7 c-43 4 -125 11 -183
16 -58 5 -181 16 -274 25 -92 8 -172 13 -176 10 -11 -7 -11 -1863 0 -1983 12
-128 25 -173 61 -210 50 -51 95 -57 387 -54 l262 3 0 -280 c0 -154 -4 -282 -9
-285 -4 -3 -168 -7 -362 -8 -380 -3 -405 -1 -519 49 -130 58 -253 194 -315
348 -62 155 -59 62 -62 1567 l-4 1378 633 3 c348 1 634 3 636 5 1 1 2 -131 2
-294z m750 -591 l0 -876 220 5 c126 2 225 9 230 14 7 7 9 313 8 872 l-3 862
283 0 282 0 -2 -1637 -3 -1638 -170 -6 c-93 -4 -218 -10 -277 -13 l-108 -6 0
503 0 504 -157 7 c-87 4 -191 9 -230 13 l-73 6 0 -521 c0 -286 -3 -523 -7
-525 -5 -3 -131 -8 -280 -12 l-272 -7 -3 499 -3 498 -97 270 c-54 148 -98 277
-98 287 0 15 12 18 98 20 l97 3 2 875 3 875 272 5 c150 3 276 4 281 2 4 -2 7
-397 7 -879z m2320 652 l0 -225 -140 7 -140 6 0 -1153 0 -1152 140 4 139 3 3
-228 c2 -126 1 -230 -2 -232 -9 -5 -943 -65 -1015 -65 -17 0 -29 21 -69 125
-28 72 -53 122 -59 118 -6 -3 -7 -1 -3 5 3 5 -7 47 -24 91 l-29 81 22 5 c12 2
90 12 172 21 83 9 153 18 158 21 4 2 7 532 7 1176 l0 1173 -99 -4 -98 -4 -16
43 c-28 78 -95 262 -121 334 -14 38 -26 71 -26 72 0 4 1184 9 1193 5 4 -2 7
-104 7 -227z m-13852 -840 c-2 -586 0 -1065 4 -1065 4 0 15 11 24 25 9 14 23
25 30 25 8 0 19 10 23 23 5 12 28 39 50 59 42 39 73 42 64 7 -3 -10 0 -19 6
-19 17 0 13 38 -6 48 -15 9 -14 12 6 38 13 16 25 28 27 27 2 -2 4 -1 4 2 0 3
13 17 30 31 16 14 30 32 30 40 0 8 4 14 9 14 5 0 23 15 40 32 l32 33 -3 690
c-3 625 -5 692 -20 715 -9 14 -21 44 -27 66 -6 23 -18 47 -26 54 -8 7 -15 18
-15 26 0 12 -21 66 -41 106 -16 33 -9 37 64 41 l72 3 -82 2 c-76 2 -83 4 -83
22 0 20 7 20 350 20 l349 0 1 -892 0 -893 27 -40 c14 -22 32 -43 39 -48 7 -4
11 -14 7 -23 -4 -10 2 -17 15 -21 11 -3 33 -24 49 -46 15 -23 37 -51 48 -62
11 -11 31 -36 45 -55 23 -31 53 -69 90 -113 8 -9 17 -26 20 -37 3 -13 9 -17
19 -11 11 7 13 190 12 1124 l-2 1116 268 -2 268 -2 3 -1192 2 -1192 -120 -121
c-66 -67 -120 -126 -120 -131 0 -5 -6 -9 -13 -9 -7 0 -26 -18 -43 -40 -16 -22
-35 -40 -42 -40 -7 0 -15 -7 -18 -15 -9 -22 -60 -75 -73 -75 -6 0 -11 -5 -11
-10 0 -6 -28 -37 -61 -70 l-61 -59 -27 32 c-14 18 -29 34 -33 35 -5 2 -8 8 -8
13 0 5 -8 17 -17 27 -43 44 -83 95 -83 103 0 5 -4 9 -9 9 -11 0 -71 58 -71 68
0 4 -12 21 -28 37 -26 30 -52 69 -52 80 0 3 7 5 15 5 8 0 15 5 15 10 0 16 -22
12 -36 -7 -9 -13 -13 -55 -14 -140 0 -68 -3 -123 -7 -123 -5 0 -60 -5 -123
-11 -63 -5 -137 -12 -165 -14 -27 -3 -93 -9 -145 -14 -52 -5 -96 -8 -97 -7 -2
1 -4 81 -5 177 -2 126 -6 174 -15 174 -6 0 -39 -26 -72 -57 -33 -32 -66 -56
-73 -54 -7 1 -10 1 -5 -1 18 -11 4 -24 -20 -20 -16 2 -22 2 -15 0 6 -3 12 -7
12 -11 0 -14 -136 -132 -147 -127 -7 2 -10 -2 -6 -11 3 -7 1 -14 -3 -14 -13 1
-54 37 -54 47 0 5 -13 22 -30 38 -16 16 -30 32 -30 36 0 5 -10 19 -22 33 -13
13 -48 52 -78 86 -30 35 -67 76 -82 92 -16 16 -28 31 -28 34 0 3 -10 15 -22
27 -79 78 -93 98 -78 108 12 9 10 10 -7 6 -13 -3 -23 -2 -23 1 0 4 -25 34 -54
66 -30 33 -57 73 -60 89 -8 40 -8 2066 0 2106 l7 31 268 0 269 0 -2 -1065z
m6353 1034 c37 -14 87 -38 112 -52 54 -32 149 -123 195 -187 48 -66 109 -231
122 -330 8 -59 10 -399 8 -1120 l-3 -1035 -32 -91 c-57 -165 -128 -263 -248
-348 -118 -83 -184 -100 -375 -99 -163 1 -856 31 -877 38 -10 4 -13 337 -13
1623 0 890 3 1622 7 1626 4 4 239 6 523 4 l515 -3 66 -26z m2085 -61 c-10
-138 -34 -599 -46 -873 -5 -132 -13 -264 -16 -293 -5 -51 -7 -53 -32 -48 -15
3 -114 13 -219 22 l-193 18 0 349 0 350 -137 -6 c-164 -6 -210 -20 -241 -76
-26 -46 -42 -169 -42 -327 l0 -122 93 -84 c50 -47 164 -149 252 -228 88 -79
196 -176 240 -216 44 -40 90 -81 101 -91 12 -10 46 -40 76 -68 30 -27 85 -77
122 -109 l68 -59 -4 -401 -4 -401 -27 -89 c-80 -259 -227 -418 -442 -477 -79
-21 -87 -22 -530 -15 -247 4 -453 10 -457 12 -5 3 -8 271 -8 596 l0 591 73 -6
c39 -4 135 -13 212 -22 77 -8 145 -15 152 -15 7 0 14 -26 18 -67 3 -38 10
-111 15 -163 5 -52 14 -154 21 -226 l11 -132 118 -7 c204 -12 284 11 309 87
15 50 31 181 31 263 l0 73 -112 104 c-61 56 -141 130 -177 163 -35 33 -72 67
-81 75 -9 8 -59 53 -111 100 -92 83 -145 131 -198 179 -14 13 -72 67 -128 118
-56 52 -114 105 -128 117 l-25 22 0 379 c0 415 9 521 55 651 53 148 145 273
258 347 53 35 178 83 232 90 17 2 227 5 469 6 l439 1 -7 -92z m6624 76 c222
-52 393 -224 466 -469 16 -53 18 -118 21 -588 l4 -528 -27 -32 c-80 -97 -456
-464 -651 -635 -56 -49 -170 -151 -199 -178 l-34 -31 -2 -334 -3 -334 -225
-17 c-124 -9 -247 -17 -275 -19 l-50 -3 -3 1584 c-2 1252 -5 1586 -15 1592 -6
4 200 8 458 8 387 0 482 -3 535 -16z m1734 -13 c43 -12 85 -28 93 -36 8 -8 21
-15 28 -15 7 0 27 -11 43 -25 17 -14 33 -25 36 -25 9 0 106 -99 106 -108 0 -4
10 -18 23 -32 44 -49 94 -170 106 -260 4 -36 9 -264 10 -508 1 -243 4 -448 6
-455 5 -13 -53 -82 -62 -73 -3 3 1 16 10 29 12 18 13 27 4 36 -17 17 -31 13
-17 -4 10 -12 10 -18 0 -30 -7 -8 -10 -22 -6 -30 4 -11 -27 -48 -101 -120 -58
-58 -110 -105 -114 -105 -5 0 -9 -6 -9 -12 0 -7 -21 -28 -45 -47 -25 -18 -45
-37 -45 -42 0 -5 -12 -7 -27 -3 -22 4 -25 3 -13 -5 13 -9 9 -17 -26 -48 -68
-63 -166 -148 -175 -151 -5 -2 -9 -10 -9 -18 0 -8 -4 -14 -10 -14 -5 0 -25
-13 -43 -30 -19 -16 -40 -30 -46 -30 -6 0 -11 -4 -11 -9 0 -11 -58 -71 -69
-71 -5 0 -20 -11 -35 -25 -15 -14 -31 -25 -36 -25 -24 0 -29 -55 -31 -352 l-1
-315 -82 -11 c-44 -7 -144 -16 -221 -22 -77 -6 -164 -12 -192 -15 l-53 -5 0
1521 0 1521 468 -4 c443 -5 471 -6 546 -27z m1225 -594 l0 -620 25 -21 c13
-12 34 -29 45 -38 12 -10 25 -18 30 -18 4 0 21 -11 37 -25 16 -14 33 -25 38
-25 6 0 20 -10 32 -21 13 -12 29 -19 36 -15 24 11 51 31 80 59 16 15 32 27 36
27 4 0 29 20 57 45 32 29 56 43 67 40 9 -3 19 -1 23 4 3 7 0 8 -9 5 -14 -5
-15 60 -13 608 l2 613 267 3 267 2 6 -52 c3 -29 5 -354 3 -723 -3 -634 -4
-671 -22 -697 -10 -16 -23 -28 -29 -28 -5 0 -25 -16 -44 -35 -19 -19 -38 -35
-42 -35 -5 0 -23 -13 -41 -30 -18 -16 -36 -30 -40 -30 -4 0 -13 -7 -20 -15 -7
-9 -49 -43 -94 -77 -45 -34 -94 -75 -111 -91 -16 -16 -40 -36 -52 -44 l-23
-15 0 -438 0 -438 -34 -6 c-18 -4 -41 -4 -50 0 -9 3 -22 1 -30 -5 -7 -6 -62
-13 -122 -16 -60 -2 -121 -8 -134 -13 -14 -6 -26 -6 -28 -1 -2 5 -18 9 -35 9
-23 0 -28 -3 -18 -9 16 -10 -2 -17 -59 -23 l-25 -3 -3 446 -2 447 -28 17 c-15
10 -50 35 -78 56 -28 22 -56 39 -62 39 -7 0 -12 3 -12 8 0 4 -21 20 -48 37
-26 16 -53 35 -60 42 -7 7 -17 13 -21 13 -5 0 -24 13 -42 30 -19 16 -38 30
-43 30 -5 0 -16 7 -25 15 -48 43 -59 52 -74 58 -16 6 -17 66 -17 785 0 428 3
782 7 786 4 4 125 6 270 5 l263 -1 -1 -621z"/>
<path d="M14978 25943 c12 -2 30 -2 40 0 9 3 -1 5 -23 4 -22 0 -30 -2 -17 -4z"/>
<path d="M8825 24010 c-3 -5 -2 -10 4 -10 5 0 13 5 16 10 3 6 2 10 -4 10 -5 0
-13 -4 -16 -10z"/>
<path d="M8670 23890 c8 -5 20 -10 25 -10 6 0 3 5 -5 10 -8 5 -19 10 -25 10
-5 0 -3 -5 5 -10z"/>
<path d="M8449 23739 c-23 -19 -23 -20 -2 -10 12 6 25 16 28 21 10 16 -1 12
-26 -11z"/>
<path d="M8345 23660 c-3 -5 -1 -10 4 -10 6 0 11 5 11 10 0 6 -2 10 -4 10 -3
0 -8 -4 -11 -10z"/>
<path d="M8226 23565 c-11 -8 -15 -15 -9 -15 6 0 16 7 23 15 16 19 11 19 -14
0z"/>
<path d="M8190 23529 c0 -5 5 -7 10 -4 6 3 10 8 10 11 0 2 -4 4 -10 4 -5 0
-10 -5 -10 -11z"/>
<path d="M8216 23514 c-11 -7 -17 -17 -13 -20 3 -4 14 1 23 10 21 22 15 28
-10 10z"/>
<path d="M8150 23501 c0 -6 4 -13 10 -16 6 -3 7 1 4 9 -7 18 -14 21 -14 7z"/>
<path d="M8105 23460 c-3 -5 -2 -10 4 -10 5 0 13 5 16 10 3 6 2 10 -4 10 -5 0
-13 -4 -16 -10z"/>
<path d="M8036 23397 c3 -10 9 -15 12 -12 3 3 0 11 -7 18 -10 9 -11 8 -5 -6z"/>
<path d="M7970 23352 c0 -12 19 -26 26 -19 2 2 -2 10 -11 17 -9 8 -15 8 -15 2z"/>
<path d="M7895 23259 c-4 -6 -14 -8 -23 -4 -9 3 -13 2 -8 -2 13 -14 54 -10 49
4 -6 16 -10 16 -18 2z"/>
<path d="M7800 23180 c0 -5 5 -10 10 -10 6 0 10 5 10 10 0 6 -4 10 -10 10 -5
0 -10 -4 -10 -10z"/>
<path d="M7710 23125 c-15 -18 1 -20 18 -3 10 10 15 10 23 -2 9 -13 10 -13 6
0 -5 21 -31 24 -47 5z"/>
<path d="M22005 23129 c-4 -6 -5 -12 -2 -15 2 -3 7 2 10 11 7 17 1 20 -8 4z"/>
<path d="M7668 23088 c-10 -10 -14 -18 -9 -18 6 0 13 5 16 10 4 6 16 8 28 4
23 -7 22 -6 -3 12 -11 8 -19 6 -32 -8z"/>
<path d="M22090 23055 c0 -11 40 -48 46 -43 3 4 -4 16 -15 27 -21 21 -31 26
-31 16z"/>
<path d="M7591 23009 c-23 -23 -41 -43 -38 -45 2 -2 25 16 51 41 27 25 44 45
39 45 -5 0 -28 -18 -52 -41z"/>
<path d="M7555 22940 c3 -5 10 -10 16 -10 5 0 9 5 9 10 0 6 -7 10 -16 10 -8 0
-12 -4 -9 -10z"/>
<path d="M22175 22940 c3 -5 8 -10 11 -10 2 0 4 5 4 10 0 6 -5 10 -11 10 -5 0
-7 -4 -4 -10z"/>
<path d="M7517 22929 c7 -7 15 -10 18 -7 3 3 -2 9 -12 12 -14 6 -15 5 -6 -5z"/>
<path d="M7480 22900 c-8 -5 -16 -21 -17 -35 -2 -23 0 -24 20 -13 20 11 20 12
4 16 -18 4 -18 5 -1 23 19 21 17 24 -6 9z"/>
<path d="M22255 22860 c3 -5 8 -10 11 -10 2 0 4 5 4 10 0 6 -5 10 -11 10 -5 0
-7 -4 -4 -10z"/>
<path d="M7405 22829 c-16 -16 -25 -29 -19 -29 12 0 60 48 53 54 -2 2 -17 -9
-34 -25z"/>
<path d="M7386 22774 c-11 -8 -16 -14 -10 -14 13 0 39 18 34 24 -3 2 -14 -2
-24 -10z"/>
<path d="M7325 22749 c-16 -16 -25 -29 -19 -29 12 0 60 48 53 54 -2 2 -17 -9
-34 -25z"/>
<path d="M7306 22694 c-11 -8 -16 -14 -10 -14 13 0 39 18 34 24 -3 2 -14 -2
-24 -10z"/>
<path d="M7262 22684 c-7 -8 -8 -14 -3 -14 10 0 25 19 20 25 -2 1 -10 -3 -17
-11z"/>
<path d="M7197 22618 c-16 -16 -27 -31 -25 -33 4 -4 68 53 68 60 0 12 -17 2
-43 -27z"/>
<path d="M7152 22559 c2 -7 10 -15 17 -17 8 -3 12 1 9 9 -2 7 -10 15 -17 17
-8 3 -12 -1 -9 -9z"/>
<path d="M7066 22475 c-3 -8 -1 -15 3 -15 5 0 11 7 15 15 3 8 1 15 -3 15 -5 0
-11 -7 -15 -15z"/>
<path d="M7030 22445 c-11 -13 -10 -14 4 -9 9 3 16 10 16 15 0 13 -6 11 -20
-6z"/>
<path d="M7000 22416 c0 -4 7 -14 15 -22 8 -9 15 -11 15 -6 0 5 -7 15 -15 22
-8 7 -15 9 -15 6z"/>
<path d="M6980 22381 c0 -10 19 -25 25 -20 1 2 -3 10 -11 17 -8 7 -14 8 -14 3z"/>
<path d="M6937 22338 c-31 -38 -36 -58 -8 -31 17 17 46 63 38 63 -1 0 -15 -15
-30 -32z"/>
<path d="M21400 22340 c0 -5 5 -10 10 -10 6 0 10 5 10 10 0 6 -4 10 -10 10 -5
0 -10 -4 -10 -10z"/>
<path d="M21390 22310 c0 -5 5 -10 11 -10 5 0 7 5 4 10 -3 6 -8 10 -11 10 -2
0 -4 -4 -4 -10z"/>
<path d="M21431 22273 c7 -12 15 -20 18 -17 3 2 -3 12 -13 22 -17 16 -18 16
-5 -5z"/>
<path d="M6761 22127 c-13 -21 -12 -21 5 -5 10 10 16 20 13 22 -3 3 -11 -5
-18 -17z"/>
<path d="M6456 21748 l-18 -33 21 25 c18 22 26 40 18 40 -1 0 -11 -15 -21 -32z"/>
<path d="M6420 21689 c0 -5 5 -7 10 -4 6 3 10 8 10 11 0 2 -4 4 -10 4 -5 0
-10 -5 -10 -11z"/>
<path d="M16113 21563 c9 -2 25 -2 35 0 9 3 1 5 -18 5 -19 0 -27 -2 -17 -5z"/>
<path d="M24051 17914 c0 -11 3 -14 6 -6 3 7 2 16 -1 19 -3 4 -6 -2 -5 -13z"/>
<path d="M24092 17760 c0 -14 2 -19 5 -12 2 6 2 18 0 25 -3 6 -5 1 -5 -13z"/>
<path d="M4312 17534 c-1 -12 -5 -43 -8 -70 -4 -38 -3 -45 6 -31 6 9 9 41 7
70 -2 28 -4 43 -5 31z"/>
<path d="M4303 17360 c0 -25 2 -35 4 -22 2 12 2 32 0 45 -2 12 -4 2 -4 -23z"/>
<path d="M24166 17324 c-3 -9 -4 -19 -1 -22 3 -3 5 1 6 9 0 8 4 6 9 -6 6 -13
9 -15 9 -5 0 8 -3 21 -8 28 -6 11 -10 10 -15 -4z"/>
<path d="M24211 17284 c0 -11 3 -14 6 -6 3 7 2 16 -1 19 -3 4 -6 -2 -5 -13z"/>
<path d="M4272 17217 c1 -14 5 -24 9 -21 9 5 6 31 -4 40 -4 4 -6 -4 -5 -19z"/>
<path d="M4402 17190 c0 -19 2 -27 5 -17 2 9 2 25 0 35 -3 9 -5 1 -5 -18z"/>
<path d="M24252 17075 c0 -16 2 -22 5 -12 2 9 2 23 0 30 -3 6 -5 -1 -5 -18z"/>
<path d="M4229 17058 c-4 -99 -3 -164 3 -149 7 19 8 171 2 171 -2 0 -4 -10 -5
-22z"/>
<path d="M4351 17064 c0 -11 3 -14 6 -6 3 7 2 16 -1 19 -3 4 -6 -2 -5 -13z"/>
<path d="M4372 17000 c0 -14 2 -19 5 -12 2 6 2 18 0 25 -3 6 -5 1 -5 -13z"/>
<path d="M5472 16995 c0 -16 2 -22 5 -12 2 9 2 23 0 30 -3 6 -5 -1 -5 -18z"/>
<path d="M24240 17015 c0 -5 5 -17 10 -25 5 -8 10 -10 10 -5 0 6 -5 17 -10 25
-5 8 -10 11 -10 5z"/>
<path d="M4196 16928 c-3 -13 -5 -39 -5 -58 1 -27 3 -22 9 20 9 58 7 77 -4 38z"/>
<path d="M24266 16925 c-4 -15 -5 -30 -1 -33 3 -3 5 2 5 11 0 8 4 17 10 19 5
2 6 9 1 16 -6 10 -10 7 -15 -13z"/>
<path d="M4352 16910 c0 -14 2 -19 5 -12 2 6 2 18 0 25 -3 6 -5 1 -5 -13z"/>
<path d="M24121 16854 c0 -11 3 -14 6 -6 3 7 2 16 -1 19 -3 4 -6 -2 -5 -13z"/>
<path d="M24271 16774 c0 -11 3 -14 6 -6 3 7 2 16 -1 19 -3 4 -6 -2 -5 -13z"/>
<path d="M24300 16775 c0 -8 4 -15 10 -15 5 0 7 7 4 15 -4 8 -8 15 -10 15 -2
0 -4 -7 -4 -15z"/>
<path d="M4332 16740 c0 -14 2 -19 5 -12 2 6 2 18 0 25 -3 6 -5 1 -5 -13z"/>
<path d="M4321 16664 c0 -11 3 -14 6 -6 3 7 2 16 -1 19 -3 4 -6 -2 -5 -13z"/>
<path d="M8380 16640 c-348 -45 -534 -319 -420 -622 53 -143 193 -279 355
-348 50 -21 76 -25 155 -25 82 0 103 4 150 26 126 59 218 188 256 355 32 145
7 376 -58 526 -22 52 -19 50 -133 72 -106 20 -225 26 -305 16z"/>
<path d="M4151 16614 c0 -11 3 -14 6 -6 3 7 2 16 -1 19 -3 4 -6 -2 -5 -13z"/>
<path d="M5416 16590 c8 -43 14 -51 14 -19 0 13 -5 31 -10 39 -7 11 -8 5 -4
-20z"/>
<path d="M24332 16595 c0 -16 2 -22 5 -12 2 9 2 23 0 30 -3 6 -5 -1 -5 -18z"/>
<path d="M5402 16540 c0 -14 2 -19 5 -12 2 6 2 18 0 25 -3 6 -5 1 -5 -13z"/>
<path d="M24322 16540 c0 -8 3 -26 7 -40 7 -24 7 -24 14 9 4 19 5 36 2 39 -3
3 -5 -3 -6 -14 0 -18 -1 -18 -9 1 -5 12 -8 14 -8 5z"/>
<path d="M4145 16490 c-4 -23 -5 -43 -2 -46 2 -3 7 14 11 37 4 23 5 44 2 46
-2 2 -7 -14 -11 -37z"/>
<path d="M5432 16500 c0 -14 2 -19 5 -12 2 6 2 18 0 25 -3 6 -5 1 -5 -13z"/>
<path d="M4250 16461 c0 -12 5 -21 10 -21 6 0 10 6 10 14 0 8 -4 18 -10 21 -5
3 -10 -3 -10 -14z"/>
<path d="M4293 16445 c0 -22 2 -30 4 -17 2 12 2 30 0 40 -3 9 -5 -1 -4 -23z"/>
<path d="M5409 16459 c0 -22 -1 -23 -9 -4 -11 26 -12 -2 -1 -30 7 -17 9 -16
16 13 4 18 4 36 1 39 -3 4 -6 -5 -7 -18z"/>
<path d="M24346 16438 c-13 -88 -14 -226 -2 -273 l13 -49 1 79 c0 44 5 81 10
83 4 1 6 17 3 35 l-5 32 -7 -35 c-5 -22 -7 2 -5 63 1 53 1 97 -1 97 -1 0 -4
-15 -7 -32z m1 -220 c-2 -13 -4 -3 -4 22 0 25 2 35 4 23 2 -13 2 -33 0 -45z"/>
<path d="M5431 16424 c0 -11 3 -14 6 -6 3 7 2 16 -1 19 -3 4 -6 -2 -5 -13z"/>
<path d="M4135 16390 c-5 -16 -4 -25 4 -28 6 -2 12 -16 12 -30 1 -15 3 -20 5
-12 3 9 1 33 -4 55 -8 37 -9 38 -17 15z"/>
<path d="M5382 16370 c0 -19 2 -27 5 -17 2 9 2 25 0 35 -3 9 -5 1 -5 -18z"/>
<path d="M24362 16380 c0 -14 2 -19 5 -12 2 6 2 18 0 25 -3 6 -5 1 -5 -13z"/>
<path d="M4260 16348 c0 -36 4 -35 14 5 4 16 2 27 -4 27 -5 0 -10 -14 -10 -32z"/>
<path d="M4280 16313 c0 -25 2 -44 4 -42 8 10 13 89 5 89 -5 0 -9 -21 -9 -47z"/>
<path d="M24321 16344 c0 -11 3 -14 6 -6 3 7 2 16 -1 19 -3 4 -6 -2 -5 -13z"/>
<path d="M4121 16313 c-1 -24 4 -43 9 -43 12 0 12 37 0 65 -7 15 -9 10 -9 -22z"/>
<path d="M4242 16305 c0 -11 4 -31 8 -45 6 -20 8 -21 8 -5 0 11 -4 31 -8 45
-6 20 -8 21 -8 5z"/>
<path d="M5402 16300 c0 -14 2 -19 5 -12 2 6 2 18 0 25 -3 6 -5 1 -5 -13z"/>
<path d="M5431 16294 c0 -11 3 -14 6 -6 3 7 2 16 -1 19 -3 4 -6 -2 -5 -13z"/>
<path d="M24221 16294 c0 -11 3 -14 6 -6 3 7 2 16 -1 19 -3 4 -6 -2 -5 -13z"/>
<path d="M12850 16270 c-12 -8 -11 -10 8 -10 12 0 22 5 22 10 0 13 -11 13 -30
0z"/>
<path d="M12968 16253 c6 -2 18 -2 25 0 6 3 1 5 -13 5 -14 0 -19 -2 -12 -5z"/>
<path d="M12840 16240 l-45 -7 40 0 c22 0 54 3 70 7 26 7 27 8 5 7 -14 0 -45
-3 -70 -7z"/>
<path d="M4273 16200 c0 -25 2 -35 4 -22 2 12 2 32 0 45 -2 12 -4 2 -4 -23z"/>
<path d="M24222 16220 c0 -14 2 -19 5 -12 2 6 2 18 0 25 -3 6 -5 1 -5 -13z"/>
<path d="M4250 16122 l5 -87 3 79 c2 44 -1 83 -5 87 -4 4 -6 -31 -3 -79z"/>
<path d="M4143 16165 c0 -22 2 -30 4 -17 2 12 2 30 0 40 -3 9 -5 -1 -4 -23z"/>
<path d="M24371 16184 c0 -11 3 -14 6 -6 3 7 2 16 -1 19 -3 4 -6 -2 -5 -13z"/>
<path d="M4112 16145 c0 -16 2 -22 5 -12 2 9 2 23 0 30 -3 6 -5 -1 -5 -18z"/>
<path d="M24322 16140 c0 -14 2 -19 5 -12 2 6 2 18 0 25 -3 6 -5 1 -5 -13z"/>
<path d="M4130 16101 c-12 -24 -13 -61 -1 -61 5 0 11 18 13 40 4 45 3 48 -12
21z"/>
<path d="M24221 16104 c0 -11 3 -14 6 -6 3 7 2 16 -1 19 -3 4 -6 -2 -5 -13z"/>
<path d="M5351 16024 c0 -11 3 -14 6 -6 3 7 2 16 -1 19 -3 4 -6 -2 -5 -13z"/>
<path d="M5347 15955 c3 -22 7 -42 9 -44 8 -9 2 45 -6 64 -7 14 -8 8 -3 -20z"/>
<path d="M4261 15944 c0 -11 3 -14 6 -6 3 7 2 16 -1 19 -3 4 -6 -2 -5 -13z"/>
<path d="M4242 15905 c0 -11 4 -33 8 -50 7 -27 8 -27 8 -5 0 14 -4 36 -8 50
-6 20 -8 21 -8 5z"/>
<path d="M5332 15900 c0 -14 2 -19 5 -12 2 6 2 18 0 25 -3 6 -5 1 -5 -13z"/>
<path d="M24402 15800 c0 -14 2 -19 5 -12 2 6 2 18 0 25 -3 6 -5 1 -5 -13z"/>
<path d="M4251 15784 c0 -11 3 -14 6 -6 3 7 2 16 -1 19 -3 4 -6 -2 -5 -13z"/>
<path d="M5331 15677 c4 -29 8 -68 8 -87 0 -29 -2 -32 -10 -15 -8 17 -9 17 -4
-5 2 -14 5 -41 6 -60 1 -28 3 -24 10 20 9 56 2 187 -10 195 -4 2 -4 -19 0 -48z"/>
<path d="M24411 15654 c0 -11 3 -14 6 -6 3 7 2 16 -1 19 -3 4 -6 -2 -5 -13z"/>
<path d="M12251 15624 c0 -11 3 -14 6 -6 3 7 2 16 -1 19 -3 4 -6 -2 -5 -13z"/>
<path d="M24421 15574 c0 -11 3 -14 6 -6 3 7 2 16 -1 19 -3 4 -6 -2 -5 -13z"/>
<path d="M24404 15476 c-3 -8 -4 -29 -2 -48 3 -29 4 -27 8 15 5 48 3 58 -6 33z"/>
<path d="M5453 15440 c0 -25 2 -35 4 -22 2 12 2 32 0 45 -2 12 -4 2 -4 -23z"/>
<path d="M12200 15380 c0 -11 2 -20 4 -20 2 0 6 9 9 20 3 11 1 20 -4 20 -5 0
-9 -9 -9 -20z"/>
<path d="M5313 15280 c0 -25 2 -35 4 -22 2 12 2 32 0 45 -2 12 -4 2 -4 -23z"/>
<path d="M24413 15200 c0 -25 2 -35 4 -22 2 12 2 32 0 45 -2 12 -4 2 -4 -23z"/>
<path d="M12165 15159 c-4 -6 -5 -12 -2 -15 2 -3 7 2 10 11 7 17 1 20 -8 4z"/>
<path d="M5322 15060 c0 -14 2 -19 5 -12 2 6 2 18 0 25 -3 6 -5 1 -5 -13z"/>
<path d="M5342 15050 c0 -19 2 -27 5 -17 2 9 2 25 0 35 -3 9 -5 1 -5 -18z"/>
<path d="M12092 15055 c0 -16 2 -22 5 -12 2 9 2 23 0 30 -3 6 -5 -1 -5 -18z"/>
<path d="M12120 15060 c0 -11 2 -20 4 -20 2 0 6 9 9 20 3 11 1 20 -4 20 -5 0
-9 -9 -9 -20z"/>
<path d="M24403 15030 c0 -30 2 -43 4 -27 2 15 2 39 0 55 -2 15 -4 2 -4 -28z"/>
<path d="M24423 15040 c0 -25 2 -35 4 -22 2 12 2 32 0 45 -2 12 -4 2 -4 -23z"/>
<path d="M4241 15014 c0 -11 3 -14 6 -6 3 7 2 16 -1 19 -3 4 -6 -2 -5 -13z"/>
<path d="M12086 15004 c-3 -9 -4 -19 -1 -22 3 -3 5 1 5 9 0 11 2 11 10 -1 5
-8 10 -10 10 -5 0 6 -4 16 -9 23 -6 11 -10 10 -15 -4z"/>
<path d="M4073 14920 c0 -47 2 -66 4 -42 2 23 2 61 0 85 -2 23 -4 4 -4 -43z"/>
<path d="M5322 14980 c0 -14 2 -19 5 -12 2 6 2 18 0 25 -3 6 -5 1 -5 -13z"/>
<path d="M5341 14984 c0 -11 3 -14 6 -6 3 7 2 16 -1 19 -3 4 -6 -2 -5 -13z"/>
<path d="M5353 14895 c0 -33 2 -45 4 -27 2 18 2 45 0 60 -2 15 -4 0 -4 -33z"/>
<path d="M5320 14895 c0 -14 2 -25 4 -25 2 0 6 11 8 25 3 14 1 25 -3 25 -5 0
-9 -11 -9 -25z"/>
<path d="M24412 14900 c0 -14 2 -19 5 -12 2 6 2 18 0 25 -3 6 -5 1 -5 -13z"/>
<path d="M4243 14820 c0 -36 2 -50 4 -32 2 17 2 47 0 65 -2 17 -4 3 -4 -33z"/>
<path d="M24411 14824 c0 -11 3 -14 6 -6 3 7 2 16 -1 19 -3 4 -6 -2 -5 -13z"/>
<path d="M5331 14744 c0 -11 3 -14 6 -6 3 7 2 16 -1 19 -3 4 -6 -2 -5 -13z"/>
<path d="M24401 14744 c0 -11 3 -14 6 -6 3 7 2 16 -1 19 -3 4 -6 -2 -5 -13z"/>
<path d="M4246 14689 c-8 -42 0 -50 9 -9 4 17 5 34 2 36 -2 3 -7 -10 -11 -27z"/>
<path d="M4256 14609 c-4 -22 -4 -70 -1 -107 4 -46 2 -61 -4 -47 -12 25 -12 1
-1 -35 8 -24 8 -24 9 -2 1 12 5 22 10 22 4 0 4 24 -1 53 -5 28 -6 76 -3 105 8
61 0 70 -9 11z"/>
<path d="M5346 14605 c-9 -26 -7 -32 5 -12 6 10 9 21 6 23 -2 3 -7 -2 -11 -11z"/>
<path d="M5352 14520 c0 -19 2 -27 5 -17 2 9 2 25 0 35 -3 9 -5 1 -5 -18z"/>
<path d="M24231 14504 c0 -11 3 -14 6 -6 3 7 2 16 -1 19 -3 4 -6 -2 -5 -13z"/>
<path d="M24212 14460 c0 -14 2 -19 5 -12 2 6 2 18 0 25 -3 6 -5 1 -5 -13z"/>
<path d="M4116 14448 c-3 -13 -5 -34 -5 -48 1 -15 5 -7 10 19 9 47 6 68 -5 29z"/>
<path d="M24321 14454 c0 -11 3 -14 6 -6 3 7 2 16 -1 19 -3 4 -6 -2 -5 -13z"/>
<path d="M24340 14383 c-6 -32 -14 -69 -17 -83 -3 -14 -3 -22 1 -19 9 8 38
150 32 156 -2 3 -10 -22 -16 -54z"/>
<path d="M24366 14334 c-4 -42 -5 -78 -2 -81 2 -2 7 30 11 72 4 42 5 78 3 81
-3 2 -8 -30 -12 -72z"/>
<path d="M4141 14374 c0 -11 3 -14 6 -6 3 7 2 16 -1 19 -3 4 -6 -2 -5 -13z"/>
<path d="M4241 14344 c0 -11 3 -14 6 -6 3 7 2 16 -1 19 -3 4 -6 -2 -5 -13z"/>
<path d="M5541 14344 c0 -11 3 -14 6 -6 3 7 2 16 -1 19 -3 4 -6 -2 -5 -13z"/>
<path d="M24200 14319 c0 -19 4 -41 9 -48 6 -10 8 1 4 30 -7 55 -13 63 -13 18z"/>
<path d="M4262 14305 c0 -16 2 -22 5 -12 2 9 2 23 0 30 -3 6 -5 -1 -5 -18z"/>
<path d="M4121 14273 c-1 -24 4 -43 9 -43 12 0 12 37 0 65 -7 15 -9 10 -9 -22z"/>
<path d="M4282 14270 c0 -19 2 -27 5 -17 2 9 2 25 0 35 -3 9 -5 1 -5 -18z"/>
<path d="M5401 14264 c0 -11 3 -14 6 -6 3 7 2 16 -1 19 -3 4 -6 -2 -5 -13z"/>
<path d="M24341 14244 c0 -21 4 -48 9 -59 5 -12 6 1 3 35 -7 66 -13 79 -12 24z"/>
<path d="M5422 14230 c0 -19 2 -27 5 -17 2 9 2 25 0 35 -3 9 -5 1 -5 -18z"/>
<path d="M4250 14189 c0 -42 5 -72 15 -85 13 -18 14 -16 14 21 -1 36 -2 37
-10 15 -6 -18 -8 -10 -5 31 2 31 0 62 -5 70 -6 9 -9 -9 -9 -52z"/>
<path d="M24322 14220 c0 -14 2 -19 5 -12 2 6 2 18 0 25 -3 6 -5 1 -5 -13z"/>
<path d="M4146 14208 c-3 -13 -5 -50 -4 -83 1 -59 1 -58 8 20 7 84 6 100 -4
63z"/>
<path d="M5381 14214 c0 -11 3 -14 6 -6 3 7 2 16 -1 19 -3 4 -6 -2 -5 -13z"/>
<path d="M4292 14190 c0 -14 2 -19 5 -12 2 6 2 18 0 25 -3 6 -5 1 -5 -13z"/>
<path d="M5392 14140 c0 -14 2 -19 5 -12 2 6 2 18 0 25 -3 6 -5 1 -5 -13z"/>
<path d="M4301 14134 c0 -11 3 -14 6 -6 3 7 2 16 -1 19 -3 4 -6 -2 -5 -13z"/>
<path d="M24342 14100 c0 -14 2 -19 5 -12 2 6 2 18 0 25 -3 6 -5 1 -5 -13z"/>
<path d="M4240 14050 c0 -5 7 -10 16 -10 8 0 12 5 9 10 -3 6 -10 10 -16 10 -5
0 -9 -4 -9 -10z"/>
<path d="M5416 14045 c-3 -9 -6 -22 -5 -28 0 -7 5 -1 10 12 5 13 8 26 5 28 -2
2 -6 -3 -10 -12z"/>
<path d="M4152 14030 c0 -14 2 -19 5 -12 2 6 2 18 0 25 -3 6 -5 1 -5 -13z"/>
<path d="M24332 14015 c0 -16 2 -22 5 -12 2 9 2 23 0 30 -3 6 -5 -1 -5 -18z"/>
<path d="M24322 13940 c0 -14 2 -19 5 -12 2 6 2 18 0 25 -3 6 -5 1 -5 -13z"/>
<path d="M4321 13864 c0 -11 3 -14 6 -6 3 7 2 16 -1 19 -3 4 -6 -2 -5 -13z"/>
<path d="M11450 13865 c-8 -9 -8 -15 -2 -15 12 0 26 19 19 26 -2 2 -10 -2 -17
-11z"/>
<path d="M4336 13803 c-6 -14 -5 -15 5 -6 7 7 10 15 7 18 -3 3 -9 -2 -12 -12z"/>
<path d="M4198 13749 c-7 -19 12 -109 24 -109 4 0 9 -17 10 -37 1 -37 1 -37 5
-6 2 18 -1 42 -8 55 -7 13 -16 43 -19 68 -3 27 -8 39 -12 29z"/>
<path d="M4339 13739 c0 -22 -1 -23 -9 -4 -6 13 -9 15 -9 5 0 -8 3 -22 8 -29
8 -12 11 -9 17 12 3 16 4 31 0 34 -3 4 -6 -5 -7 -18z"/>
<path d="M24286 13729 c-8 -42 0 -50 9 -9 4 17 5 34 2 36 -2 3 -7 -10 -11 -27z"/>
<path d="M24255 13720 c-4 -17 -5 -34 -2 -36 2 -3 7 10 11 27 8 42 0 50 -9 9z"/>
<path d="M5451 13704 c0 -11 3 -14 6 -6 3 7 2 16 -1 19 -3 4 -6 -2 -5 -13z"/>
<path d="M5500 13656 c0 -8 4 -17 9 -20 5 -4 7 3 4 14 -6 23 -13 26 -13 6z"/>
<path d="M4346 13645 c-3 -9 -6 -24 -5 -33 0 -9 5 -4 10 12 9 32 6 48 -5 21z"/>
<path d="M11305 13629 c-4 -6 -5 -12 -2 -15 2 -3 7 2 10 11 7 17 1 20 -8 4z"/>
<path d="M4351 13574 c0 -11 3 -14 6 -6 3 7 2 16 -1 19 -3 4 -6 -2 -5 -13z"/>
<path d="M4216 13555 c8 -37 14 -45 14 -19 0 10 -5 26 -10 34 -8 11 -9 7 -4
-15z"/>
<path d="M5503 13520 c0 -25 2 -35 4 -22 2 12 2 32 0 45 -2 12 -4 2 -4 -23z"/>
<path d="M11194 13545 c-12 -9 -14 -14 -6 -15 7 0 20 7 28 15 20 19 4 20 -22
0z"/>
<path d="M24251 13544 c0 -11 3 -14 6 -6 3 7 2 16 -1 19 -3 4 -6 -2 -5 -13z"/>
<path d="M4371 13534 c0 -11 3 -14 6 -6 3 7 2 16 -1 19 -3 4 -6 -2 -5 -13z"/>
<path d="M11137 13499 c-4 -16 -3 -18 9 -8 16 13 19 29 5 29 -5 0 -11 -9 -14
-21z"/>
<path d="M11068 13443 c7 -3 16 -2 19 1 4 3 -2 6 -13 5 -11 0 -14 -3 -6 -6z"/>
<path d="M11048 13403 c7 -3 16 -2 19 1 4 3 -2 6 -13 5 -11 0 -14 -3 -6 -6z"/>
<path d="M10984 13375 c-10 -8 -14 -15 -8 -15 6 0 17 7 24 15 16 19 9 19 -16
0z"/>
<path d="M4412 13340 c0 -14 2 -19 5 -12 2 6 2 18 0 25 -3 6 -5 1 -5 -13z"/>
<path d="M10895 13300 c3 -5 8 -10 11 -10 2 0 4 5 4 10 0 6 -5 10 -11 10 -5 0
-7 -4 -4 -10z"/>
<path d="M4312 13280 c0 -14 2 -19 5 -12 2 6 2 18 0 25 -3 6 -5 1 -5 -13z"/>
<path d="M4283 13245 c0 -22 2 -30 4 -17 2 12 2 30 0 40 -3 9 -5 -1 -4 -23z"/>
<path d="M4422 13255 c0 -16 2 -22 5 -12 2 9 2 23 0 30 -3 6 -5 -1 -5 -18z"/>
<path d="M4307 13187 c-11 -29 -9 -43 4 -30 6 6 9 19 7 29 -3 18 -4 18 -11 1z"/>
<path d="M4415 13170 c-3 -5 -1 -10 4 -10 6 0 11 5 11 10 0 6 -2 10 -4 10 -3
0 -8 -4 -11 -10z"/>
<path d="M4452 13140 c0 -14 2 -19 5 -12 2 6 2 18 0 25 -3 6 -5 1 -5 -13z"/>
<path d="M4402 13100 c0 -14 2 -19 5 -12 2 6 2 18 0 25 -3 6 -5 1 -5 -13z"/>
<path d="M4370 12910 c0 -5 5 -10 11 -10 5 0 7 5 4 10 -3 6 -8 10 -11 10 -2 0
-4 -4 -4 -10z"/>
<path d="M4362 12860 c0 -14 2 -19 5 -12 2 6 2 18 0 25 -3 6 -5 1 -5 -13z"/>
<path d="M4382 12780 c0 -14 2 -19 5 -12 2 6 2 18 0 25 -3 6 -5 1 -5 -13z"/>
<path d="M4392 12700 c0 -14 2 -19 5 -12 2 6 2 18 0 25 -3 6 -5 1 -5 -13z"/>
<path d="M4423 12629 c-1 -11 5 -19 13 -19 18 0 19 26 1 33 -8 3 -14 -3 -14
-14z"/>
<path d="M4571 12634 c0 -11 3 -14 6 -6 3 7 2 16 -1 19 -3 4 -6 -2 -5 -13z"/>
<path d="M4582 12570 c0 -14 2 -19 5 -12 2 6 2 18 0 25 -3 6 -5 1 -5 -13z"/>
<path d="M5785 12345 c4 -11 10 -32 13 -47 2 -15 8 -25 13 -23 9 6 -8 65 -24
80 -7 7 -7 3 -2 -10z"/>
<path d="M5931 12294 c0 -11 3 -14 6 -6 3 7 2 16 -1 19 -3 4 -6 -2 -5 -13z"/>
<path d="M23751 12274 c0 -11 3 -14 6 -6 3 7 2 16 -1 19 -3 4 -6 -2 -5 -13z"/>
<path d="M6002 12235 c0 -11 3 -29 8 -40 11 -25 11 1 0 35 -6 20 -8 21 -8 5z"/>
<path d="M16515 12890 c-3 -5 3 -10 15 -10 12 0 18 5 15 10 -3 6 -10 10 -15
10 -5 0 -12 -4 -15 -10z"/>
<path d="M16458 12869 c-20 -11 -24 -29 -7 -29 5 0 7 5 4 10 -3 6 1 10 9 10 9
0 16 5 16 10 0 12 0 12 -22 -1z"/>
<path d="M16505 12850 c3 -5 8 -10 11 -10 2 0 4 5 4 10 0 6 -5 10 -11 10 -5 0
-7 -4 -4 -10z"/>
<path d="M16335 12800 c-3 -5 1 -10 9 -10 8 0 18 5 21 10 3 6 -1 10 -9 10 -8
0 -18 -4 -21 -10z"/>
<path d="M16311 12790 c-2 -30 13 -40 44 -31 l30 9 -32 1 c-21 1 -33 7 -36 19
-3 12 -5 13 -6 2z"/>
<path d="M16376 12705 c4 -8 8 -15 10 -15 2 0 4 7 4 15 0 8 -4 15 -10 15 -5 0
-7 -7 -4 -15z"/>
<path d="M16397 12690 c-5 -18 28 -50 50 -50 4 0 -5 9 -22 20 -16 11 -24 20
-17 20 6 0 12 7 12 15 0 22 -17 18 -23 -5z"/>
<path d="M8126 8391 c-7 -10 22 -37 30 -28 4 3 -1 13 -9 22 -9 8 -18 11 -21 6z"/>
<path d="M8045 8259 c-6 -19 0 -38 9 -28 10 12 16 49 7 49 -5 0 -13 -9 -16
-21z"/>
<path d="M8008 8203 c7 -3 16 -2 19 1 4 3 -2 6 -13 5 -11 0 -14 -3 -6 -6z"/>
<path d="M7991 8134 c0 -11 3 -14 6 -6 3 7 2 16 -1 19 -3 4 -6 -2 -5 -13z"/>
<path d="M8606 8085 c-48 -17 -68 -37 -92 -95 -18 -43 -19 -87 -22 -865 -4
-1015 0 -1058 87 -1120 38 -26 52 -30 124 -33 147 -5 173 30 189 252 13 193 4
1664 -11 1731 -16 71 -56 116 -117 132 -63 16 -109 16 -158 -2z"/>
<path d="M7983 7880 c0 -47 2 -66 4 -42 2 23 2 61 0 85 -2 23 -4 4 -4 -43z"/>
<path d="M5357 8553 c-12 -12 -7 -22 8 -17 8 4 15 10 15 15 0 11 -14 12 -23 2z"/>
<path d="M5400 8550 c0 -5 5 -10 10 -10 6 0 10 5 10 10 0 6 -4 10 -10 10 -5 0
-10 -4 -10 -10z"/>
<path d="M5445 8550 c3 -5 22 -10 41 -10 19 0 34 5 34 10 0 6 -18 10 -41 10
-24 0 -38 -4 -34 -10z"/>
<path d="M5758 8553 c7 -3 16 -2 19 1 4 3 -2 6 -13 5 -11 0 -14 -3 -6 -6z"/>
<path d="M6112 8548 c26 -7 644 -11 637 -3 -3 2 -152 6 -333 7 -180 2 -317 0
-304 -4z"/>
<path d="M7218 8543 c12 -2 32 -2 45 0 12 2 2 4 -23 4 -25 0 -35 -2 -22 -4z"/>
<path d="M5758 8523 c7 -3 16 -2 19 1 4 3 -2 6 -13 5 -11 0 -14 -3 -6 -6z"/>
<path d="M7303 8523 c15 -2 37 -2 50 0 12 2 0 4 -28 4 -27 0 -38 -2 -22 -4z"/>
<path d="M5400 8485 c0 -8 5 -15 10 -15 6 0 10 7 10 15 0 8 -4 15 -10 15 -5 0
-10 -7 -10 -15z"/>
<path d="M6146 8484 c-4 -9 -4 -19 -1 -22 2 -3 7 3 11 12 4 9 4 19 1 22 -2 3
-7 -3 -11 -12z"/>
<path d="M5342 8460 c0 -19 2 -27 5 -17 2 9 2 25 0 35 -3 9 -5 1 -5 -18z"/>
<path d="M5820 8474 c0 -8 5 -12 10 -9 6 4 8 11 5 16 -9 14 -15 11 -15 -7z"/>
<path d="M5361 8464 c0 -11 3 -14 6 -6 3 7 2 16 -1 19 -3 4 -6 -2 -5 -13z"/>
<path d="M7186 8461 c-4 -7 -5 -15 -2 -18 9 -9 19 4 14 18 -4 11 -6 11 -12 0z"/>
<path d="M5435 7480 c0 -525 1 -740 2 -477 2 262 2 692 0 955 -1 262 -2 47 -2
-478z"/>
<path d="M5845 7480 c0 -525 1 -740 2 -477 2 262 2 692 0 955 -1 262 -2 47 -2
-478z"/>
<path d="M6751 6824 c0 -11 3 -14 6 -6 3 7 2 16 -1 19 -3 4 -6 -2 -5 -13z"/>
<path d="M6721 6804 c0 -11 3 -14 6 -6 3 7 2 16 -1 19 -3 4 -6 -2 -5 -13z"/>
<path d="M6746 6775 c-3 -8 -1 -15 4 -15 6 0 10 7 10 15 0 8 -2 15 -4 15 -2 0
-6 -7 -10 -15z"/>
<path d="M6145 6690 c-3 -5 -1 -10 4 -10 6 0 11 5 11 10 0 6 -2 10 -4 10 -3 0
-8 -4 -11 -10z"/>
<path d="M6145 6630 c3 -5 8 -10 11 -10 2 0 4 5 4 10 0 6 -5 10 -11 10 -5 0
-7 -4 -4 -10z"/>
<path d="M6900 6541 c0 -17 30 -40 53 -41 25 0 21 15 -5 17 -13 1 -28 10 -35
19 -9 12 -13 13 -13 5z"/>
<path d="M6015 6530 c-3 -5 1 -10 10 -10 9 0 13 5 10 10 -3 6 -8 10 -10 10 -2
0 -7 -4 -10 -10z"/>
<path d="M5343 6485 c0 -27 2 -38 4 -22 2 15 2 37 0 50 -2 12 -4 0 -4 -28z"/>
<path d="M5841 6504 c0 -11 3 -14 6 -6 3 7 2 16 -1 19 -3 4 -6 -2 -5 -13z"/>
<path d="M7180 6441 c0 -12 5 -21 10 -21 6 0 10 6 10 14 0 8 -4 18 -10 21 -5
3 -10 -3 -10 -14z"/>
<path d="M5918 6443 c7 -3 16 -2 19 1 4 3 -2 6 -13 5 -11 0 -14 -3 -6 -6z"/>
<path d="M6976 6391 c-4 -7 -5 -15 -2 -18 9 -9 19 4 14 18 -4 11 -6 11 -12 0z"/>
<path d="M7056 6381 c-4 -7 -5 -15 -2 -18 9 -9 19 4 14 18 -4 11 -6 11 -12 0z"/>
<path d="M5417 6340 c19 -22 29 -19 20 5 -4 8 -13 15 -22 15 -13 0 -12 -3 2
-20z"/>
<path d="M6175 6100 c-3 -5 -1 -10 4 -10 6 0 11 5 11 10 0 6 -2 10 -4 10 -3 0
-8 -4 -11 -10z"/>
<path d="M5666 6065 c4 -8 8 -15 10 -15 2 0 4 7 4 15 0 8 -4 15 -10 15 -5 0
-7 -7 -4 -15z"/>
<path d="M5695 6040 c-3 -4 9 -13 27 -19 38 -13 38 -13 38 -2 0 13 -58 32 -65
21z"/>
<path d="M6865 6030 c3 -5 8 -10 11 -10 2 0 4 5 4 10 0 6 -5 10 -11 10 -5 0
-7 -4 -4 -10z"/>
<path d="M7440 6013 c0 -29 2 -29 19 5 10 18 9 22 -4 22 -10 0 -15 -9 -15 -27z"/>
<path d="M6092 6008 c-14 -14 -16 -28 -2 -28 5 0 14 9 20 20 12 22 1 27 -18 8z"/>
<path d="M6848 6004 c-8 -8 2 -35 19 -52 16 -17 16 -12 0 27 -7 17 -16 29 -19
25z"/>
<path d="M5820 5950 c0 -5 5 -10 10 -10 6 0 10 5 10 10 0 6 -4 10 -10 10 -5 0
-10 -4 -10 -10z"/>
<path d="M5807 5910 c3 -11 7 -20 9 -20 2 0 4 9 4 20 0 11 -4 20 -9 20 -5 0
-7 -9 -4 -20z"/>
<path d="M6935 5870 c3 -5 10 -10 16 -10 5 0 9 5 9 10 0 6 -7 10 -16 10 -8 0
-12 -4 -9 -10z"/>
<path d="M7280 5853 c0 -22 2 -25 10 -13 13 20 13 40 0 40 -5 0 -10 -12 -10
-27z"/>
<path d="M5935 5860 c-3 -5 -1 -10 4 -10 6 0 11 5 11 10 0 6 -2 10 -4 10 -3 0
-8 -4 -11 -10z"/>
<path d="M7031 5834 c0 -11 3 -14 6 -6 3 7 2 16 -1 19 -3 4 -6 -2 -5 -13z"/>
<path d="M7000 5800 c0 -5 5 -10 10 -10 6 0 10 5 10 10 0 6 -4 10 -10 10 -5 0
-10 -4 -10 -10z"/>
<path d="M6420 5789 c-18 -5 -10 -7 31 -8 31 -1 92 -4 135 -7 54 -4 74 -2 64
5 -19 12 -196 20 -230 10z"/>
<path d="M6700 5790 c35 -11 50 -11 50 -2 0 5 -17 9 -37 9 -33 1 -35 0 -13 -7z"/>
<path d="M7200 5790 c0 -5 5 -10 10 -10 6 0 10 5 10 10 0 6 -4 10 -10 10 -5 0
-10 -4 -10 -10z"/>
<path d="M7120 5710 c0 -5 5 -10 10 -10 6 0 10 5 10 10 0 6 -4 10 -10 10 -5 0
-10 -4 -10 -10z"/>
<path d="M11679 8001 c-2 -6 -3 -495 -1 -1086 l2 -1075 113 0 c140 0 211 18
250 61 16 17 26 37 23 45 -3 8 -2 13 3 9 27 -16 31 121 31 965 0 858 -4 981
-32 964 -7 -4 -8 -2 -4 4 14 23 -27 71 -78 93 -41 18 -75 23 -177 27 -88 3
-128 1 -130 -7z"/>
<path d="M20510 7424 l0 -616 43 33 c23 18 114 104 201 191 l159 157 -6 339
c-8 368 -12 400 -64 455 -39 39 -109 57 -230 57 l-103 0 0 -616z"/>
<path d="M22580 8530 c14 -4 34 -8 45 -9 16 -1 17 1 5 9 -8 5 -28 9 -45 9 -29
-1 -29 -1 -5 -9z"/>
<path d="M22418 8523 c12 -2 32 -2 45 0 12 2 2 4 -23 4 -25 0 -35 -2 -22 -4z"/>
<path d="M22720 8470 c0 -5 5 -10 10 -10 6 0 10 5 10 10 0 6 -4 10 -10 10 -5
0 -10 -4 -10 -10z"/>
<path d="M22775 8450 c3 -5 10 -10 16 -10 5 0 9 5 9 10 0 6 -7 10 -16 10 -8 0
-12 -4 -9 -10z"/>
<path d="M22881 8384 c0 -11 3 -14 6 -6 3 7 2 16 -1 19 -3 4 -6 -2 -5 -13z"/>
<path d="M22921 8334 c0 -11 3 -14 6 -6 3 7 2 16 -1 19 -3 4 -6 -2 -5 -13z"/>
<path d="M22950 8290 c0 -5 5 -10 10 -10 6 0 15 -10 20 -22 7 -19 9 -20 9 -5
1 10 -5 25 -13 33 -17 16 -26 18 -26 4z"/>
<path d="M22388 8113 c12 -2 32 -2 45 0 12 2 2 4 -23 4 -25 0 -35 -2 -22 -4z"/>
<path d="M22175 8100 c-3 -5 1 -10 9 -10 9 0 16 5 16 10 0 6 -4 10 -9 10 -6 0
-13 -4 -16 -10z"/>
<path d="M22340 8090 c36 -12 60 -12 60 0 0 6 -19 10 -42 9 -37 -1 -39 -2 -18
-9z"/>
<path d="M22480 8096 c0 -9 40 -13 46 -5 3 5 -6 9 -20 9 -14 0 -26 -2 -26 -4z"/>
<path d="M22152 8060 c-8 -13 -8 -20 -2 -20 6 0 13 7 17 15 9 24 -1 27 -15 5z"/>
<path d="M22204 8069 c-9 -15 -5 -1184 4 -1187 6 -2 16 5 24 15 7 11 30 29 51
42 20 12 37 27 37 32 0 5 5 9 10 9 10 0 130 109 174 158 12 12 40 42 64 66
l42 44 0 258 c-1 397 -18 509 -80 529 -11 4 -20 10 -20 15 0 15 -297 34 -306
19z"/>
<path d="M22551 8054 c0 -11 3 -14 6 -6 3 7 2 16 -1 19 -3 4 -6 -2 -5 -13z"/>
<path d="M23071 8054 c0 -11 3 -14 6 -6 3 7 2 16 -1 19 -3 4 -6 -2 -5 -13z"/>
<path d="M23073 7995 c0 -22 2 -30 4 -17 2 12 2 30 0 40 -3 9 -5 -1 -4 -23z"/>
<path d="M22606 7971 c-4 -6 -2 -11 3 -11 6 0 12 -10 12 -22 1 -17 3 -18 6 -6
6 23 -12 55 -21 39z"/>
<path d="M23053 7915 c0 -22 2 -30 4 -17 2 12 2 30 0 40 -3 9 -5 -1 -4 -23z"/>
<path d="M22623 7840 c0 -25 2 -35 4 -22 2 12 2 32 0 45 -2 12 -4 2 -4 -23z"/>
<path d="M22634 7545 c0 -137 2 -195 3 -128 2 67 2 179 0 250 -1 70 -3 16 -3
-122z"/>
<path d="M22624 7235 c-13 -45 -14 -76 -3 -69 5 2 6 11 2 19 -3 9 0 22 7 30 6
7 10 24 8 37 -2 18 -5 15 -14 -17z"/>
<path d="M22465 7030 c-3 -5 -1 -10 4 -10 6 0 11 5 11 10 0 6 -2 10 -4 10 -3
0 -8 -4 -11 -10z"/>
<path d="M22391 6994 c0 -11 3 -14 6 -6 3 7 2 16 -1 19 -3 4 -6 -2 -5 -13z"/>
<path d="M22333 6953 c-7 -2 -13 -9 -13 -14 0 -14 26 -10 40 6 10 12 10 15 -1
14 -8 0 -20 -3 -26 -6z"/>
<path d="M22916 6905 c-11 -8 -17 -17 -14 -20 2 -3 13 4 23 15 21 23 18 25 -9
5z"/>
<path d="M22160 6890 c0 -5 5 -10 11 -10 5 0 7 5 4 10 -3 6 -8 10 -11 10 -2 0
-4 -4 -4 -10z"/>
<path d="M22760 6830 c0 -5 7 -10 15 -10 8 0 15 -6 15 -12 0 -9 4 -8 10 2 6
10 10 11 10 3 0 -19 18 -16 42 7 19 17 19 20 5 20 -9 0 -17 -4 -17 -10 0 -5
-7 -10 -15 -10 -8 0 -15 6 -15 13 0 9 -3 8 -9 -2 -6 -9 -11 -10 -15 -2 -9 14
-26 14 -26 1z"/>
<path d="M22733 6753 c-7 -2 -13 -12 -13 -21 1 -15 2 -16 13 -1 7 9 19 18 27
22 13 5 13 5 0 5 -8 0 -21 -2 -27 -5z"/>
<path d="M22320 6379 c0 -5 5 -7 10 -4 6 3 10 8 10 11 0 2 -4 4 -10 4 -5 0
-10 -5 -10 -11z"/>
<path d="M22145 5630 c-16 -7 -17 -9 -3 -9 9 -1 20 4 23 9 7 11 7 11 -20 0z"/>
<path d="M22088 5623 c6 -2 18 -2 25 0 6 3 1 5 -13 5 -14 0 -19 -2 -12 -5z"/>
<path d="M24720 8550 c0 -5 15 -10 34 -10 19 0 38 5 41 10 4 6 -10 10 -34 10
-23 0 -41 -4 -41 -10z"/>
<path d="M24820 8550 c0 -5 5 -10 10 -10 6 0 10 5 10 10 0 6 -4 10 -10 10 -5
0 -10 -4 -10 -10z"/>
<path d="M24860 8554 c0 -3 7 -12 15 -20 13 -13 15 -107 17 -697 l3 -682 3
660 c1 363 0 679 -3 703 -4 27 -11 42 -21 42 -8 0 -14 -3 -14 -6z"/>
<path d="M23488 8543 c67 -2 177 -2 245 0 67 1 12 3 -123 3 -135 0 -190 -2
-122 -3z"/>
<path d="M24458 8523 c6 -2 18 -2 25 0 6 3 1 5 -13 5 -14 0 -19 -2 -12 -5z"/>
<path d="M24390 8482 c0 -15 4 -20 16 -15 9 3 12 9 7 12 -4 3 -11 10 -15 15
-5 5 -8 0 -8 -12z"/>
<path d="M24820 8490 c0 -5 5 -10 11 -10 5 0 7 5 4 10 -3 6 -8 10 -11 10 -2 0
-4 -4 -4 -10z"/>
<path d="M23840 8463 c0 -18 5 -33 10 -33 13 0 13 30 0 50 -7 11 -10 7 -10
-17z"/>
<path d="M24872 8460 c0 -14 2 -19 5 -12 2 6 2 18 0 25 -3 6 -5 1 -5 -13z"/>
<path d="M24395 7920 c0 -289 1 -407 2 -262 2 144 2 380 0 525 -1 144 -2 26
-2 -263z"/>
<path d="M23847 7643 c-11 -11 -8 -153 3 -153 6 0 10 33 10 80 0 80 -1 86 -13
73z"/>
<path d="M23840 7270 c0 -5 7 -10 15 -10 8 0 15 5 15 10 0 6 -7 10 -15 10 -8
0 -15 -4 -15 -10z"/>
<path d="M24800 7065 c0 -8 2 -15 4 -15 2 0 6 7 10 15 3 8 1 15 -4 15 -6 0
-10 -7 -10 -15z"/>
<path d="M24680 6971 c0 -5 9 -7 20 -4 11 3 20 7 20 9 0 2 -9 4 -20 4 -11 0
-20 -4 -20 -9z"/>
<path d="M23650 6827 c14 -8 27 -12 30 -10 7 6 -23 23 -40 23 -8 0 -4 -6 10
-13z"/>
<path d="M23768 6733 c7 -3 16 -2 19 1 4 3 -2 6 -13 5 -11 0 -14 -3 -6 -6z"/>
<path d="M23911 6664 c0 -11 3 -14 6 -6 3 7 2 16 -1 19 -3 4 -6 -2 -5 -13z"/>
<path d="M23880 6623 c0 -16 6 -23 20 -23 11 0 20 5 20 11 0 5 -4 8 -9 4 -6
-3 -14 3 -20 12 -9 16 -10 16 -11 -4z"/>
<path d="M23882 6168 c-1 -207 1 -379 6 -381 6 -5 6 411 -1 658 -2 55 -4 -70
-5 -277z"/>
<path d="M24110 5870 c0 -5 11 -10 25 -10 14 0 25 5 25 10 0 6 -11 10 -25 10
-14 0 -25 -4 -25 -10z"/>
<path d="M24343 5863 c9 -2 25 -2 35 0 9 3 1 5 -18 5 -19 0 -27 -2 -17 -5z"/>
<path d="M23960 5828 c0 -16 5 -28 10 -28 13 0 13 20 0 40 -8 12 -10 9 -10
-12z"/>
<path d="M23911 5814 c0 -11 3 -14 6 -6 3 7 2 16 -1 19 -3 4 -6 -2 -5 -13z"/>
</g>
</svg>
